<svg width="252" height="77" viewBox="0 0 252 77" fill="none" xmlns="http://www.w3.org/2000/svg">
<g clip-path="url(#clip0_25_115)">
<path d="M101 48.1209H251" stroke="black" stroke-width="1.5" stroke-linecap="round"/>
<path d="M1.00024 21.1209L40.0002 1.12091L80.0002 21.1209" stroke="black" stroke-width="2" stroke-linecap="round"/>
<path d="M7.50024 26.1209V28.6209L8.00024 29.1209H72.5002L73.5002 28.6209V26.1209M5.00024 23.6209L40.5002 6.12091L76.0002 23.6209V25.1209H5.00024V23.6209Z" stroke="black" stroke-width="2" stroke-linecap="round"/>
<path d="M12.0002 30.1209V32.6209L12.5002 33.1209H28.5002L29.5002 32.6209V30.1209" stroke="black" stroke-width="2" stroke-linecap="round"/>
<path d="M72.0002 70.1209V67.1209L71.0002 66.1209H12.5002" stroke="black" stroke-width="2" stroke-linecap="round"/>
<path d="M14.5002 61.6209H28.5002L29.5002 62.6209V64.6209" stroke="black" stroke-width="2" stroke-linecap="round"/>
<path d="M27.5002 34.1209V61.1209" stroke="black" stroke-width="2" stroke-linecap="round"/>
<path d="M23.0002 34.1209V61.1209" stroke="black" stroke-width="2" stroke-linecap="round"/>
<path d="M18.5002 34.1209V61.1209" stroke="black" stroke-width="2" stroke-linecap="round"/>
<path d="M14.0002 34.1209V61.6209" stroke="black" stroke-width="2" stroke-linecap="round"/>
<path d="M72.0002 70.1209H74.5002L75.0002 70.6209V74.1209L74.5002 75.1209H6.50024L6.00024 74.6209V70.6209L6.50024 70.1209H9.00024" stroke="black" stroke-width="2" stroke-linecap="round"/>
<path d="M32.2342 14.2669C32.3956 14.2669 32.6119 14.2742 32.8832 14.2889C33.1546 14.3036 33.4369 14.3256 33.7302 14.3549C34.0236 14.3769 34.2802 14.4026 34.5002 14.4319C34.7202 14.4539 34.8632 14.4796 34.9292 14.5089L34.7092 16.1699H34.5992C34.5992 15.7666 34.4416 15.4402 34.1262 15.1909C33.8182 14.9416 33.3929 14.8169 32.8502 14.8169C32.4029 14.8169 32.0472 14.9049 31.7832 15.0809C31.5192 15.2496 31.3762 15.4696 31.3542 15.7409C31.3322 16.0049 31.4202 16.2102 31.6182 16.3569C31.8236 16.5036 32.0619 16.6392 32.3332 16.7639L34.3902 17.7209C34.8009 17.9042 35.1236 18.1719 35.3582 18.5239C35.5929 18.8759 35.6919 19.3196 35.6552 19.8549C35.6039 20.6396 35.2739 21.2409 34.6652 21.6589C34.0639 22.0696 33.2426 22.2749 32.2012 22.2749C31.7759 22.2749 31.3909 22.2419 31.0462 22.1759C30.7016 22.1099 30.4046 22.0256 30.1552 21.9229C29.9132 21.8129 29.7262 21.6919 29.5942 21.5599C29.5136 21.3766 29.4806 21.1529 29.4952 20.8889C29.5099 20.6249 29.5576 20.3646 29.6382 20.1079C29.7262 19.8439 29.8289 19.6349 29.9462 19.4809H30.0452C30.0232 19.8622 30.1039 20.2252 30.2872 20.5699C30.4706 20.9146 30.7456 21.1932 31.1122 21.4059C31.4789 21.6186 31.9189 21.7249 32.4322 21.7249C32.9602 21.7249 33.3489 21.6149 33.5982 21.3949C33.8549 21.1749 33.9832 20.9256 33.9832 20.6469C33.9832 20.4122 33.8916 20.1996 33.7082 20.0089C33.5322 19.8182 33.2352 19.6276 32.8172 19.4369L31.0242 18.6009C30.5182 18.3662 30.1479 18.0436 29.9132 17.6329C29.6859 17.2222 29.6052 16.7566 29.6712 16.2359C29.7226 15.8106 29.8582 15.4512 30.0782 15.1579C30.2982 14.8646 30.5879 14.6446 30.9472 14.4979C31.3139 14.3439 31.7429 14.2669 32.2342 14.2669ZM34.9512 14.3769L34.9182 14.6079H33.3232V14.3769H34.9512ZM42.9211 14.2669C42.9211 14.2669 42.9211 14.2852 42.9211 14.3219C42.9211 14.3512 42.9211 14.3659 42.9211 14.3659L38.9501 22.1209H36.4751V22.0219L40.1271 14.9599H36.6291V14.4099H41.7551C41.9018 14.4099 42.0558 14.4026 42.2171 14.3879C42.3858 14.3732 42.5324 14.3549 42.6571 14.3329C42.7891 14.3109 42.8771 14.2889 42.9211 14.2669ZM42.6681 21.5709L42.6021 22.1209H37.2891V21.5709H42.6681ZM43.1741 19.5689L42.7561 22.1209H40.3801L40.5671 21.7139L40.7761 21.5709C41.3041 21.5709 41.7734 21.3949 42.1841 21.0429C42.6021 20.6909 42.8954 20.1996 43.0641 19.5689H43.1741ZM38.1581 14.9599C37.7108 14.9672 37.3624 15.0992 37.1131 15.3559C36.8638 15.6052 36.7391 15.9499 36.7391 16.3899V16.4779H36.6291V14.9269H38.1581V14.9599ZM36.6291 14.2119C36.7024 14.2412 36.8124 14.2706 36.9591 14.2999C37.1131 14.3292 37.2818 14.3549 37.4651 14.3769C37.6484 14.3989 37.8171 14.4099 37.9711 14.4099L36.6291 14.5309V14.2119ZM46.7927 14.4209H48.1237C48.4537 14.4209 48.7911 14.4502 49.1357 14.5089C49.4804 14.5676 49.7957 14.6739 50.0817 14.8279C50.3677 14.9746 50.5987 15.1836 50.7747 15.4549C50.9507 15.7262 51.0387 16.0746 51.0387 16.4999C51.0387 16.7786 50.9874 17.0682 50.8847 17.3689C50.7821 17.6622 50.6024 17.9226 50.3457 18.1499C50.0964 18.3699 49.7407 18.5166 49.2787 18.5899C49.5867 18.6779 49.8544 18.8282 50.0817 19.0409C50.3091 19.2536 50.4887 19.4699 50.6207 19.6899C50.6354 19.7119 50.6721 19.7742 50.7307 19.8769C50.7894 19.9796 50.8627 20.1079 50.9507 20.2619C51.0461 20.4086 51.1451 20.5626 51.2477 20.7239C51.3504 20.8852 51.4531 21.0356 51.5557 21.1749C51.7244 21.4022 51.8711 21.5746 51.9957 21.6919C52.1204 21.8092 52.2451 21.8899 52.3697 21.9339C52.5017 21.9779 52.6557 22.0036 52.8317 22.0109V22.1209H51.4567C51.0167 22.1209 50.6097 22.0952 50.2357 22.0439C49.8617 21.9926 49.5244 21.8789 49.2237 21.7029C48.9304 21.5269 48.6701 21.2482 48.4427 20.8669C48.3621 20.7349 48.2961 20.6029 48.2447 20.4709C48.1934 20.3389 48.1494 20.2106 48.1127 20.0859C48.0761 19.9612 48.0431 19.8439 48.0137 19.7339C47.9917 19.6166 47.9697 19.5066 47.9477 19.4039C47.9257 19.2939 47.9001 19.1912 47.8707 19.0959C47.7974 18.8319 47.7094 18.6522 47.6067 18.5569C47.5041 18.4616 47.4014 18.3956 47.2987 18.3589V18.2489C47.3281 18.2489 47.3611 18.2489 47.3977 18.2489C47.4344 18.2489 47.4601 18.2489 47.4747 18.2489C47.6801 18.2489 47.8634 18.2012 48.0247 18.1059C48.1861 18.0106 48.3217 17.8639 48.4317 17.6659C48.5417 17.4679 48.6151 17.2112 48.6517 16.8959C48.6591 16.8372 48.6664 16.7749 48.6737 16.7089C48.6811 16.6356 48.6811 16.5476 48.6737 16.4449C48.6444 15.9022 48.5087 15.5246 48.2667 15.3119C48.0321 15.0992 47.7497 14.9929 47.4197 14.9929C47.3831 14.9929 47.3354 14.9929 47.2767 14.9929C47.2181 14.9929 47.1557 14.9929 47.0897 14.9929C47.0237 14.9929 46.9614 14.9929 46.9027 14.9929C46.9027 14.9929 46.8917 14.9452 46.8697 14.8499C46.8551 14.7546 46.8367 14.6592 46.8147 14.5639C46.8001 14.4686 46.7927 14.4209 46.7927 14.4209ZM46.9357 14.4209V22.1209H44.6697V14.4209H46.9357ZM44.7027 21.3179V22.1209H43.8227V22.0109C43.8374 22.0109 43.8631 22.0109 43.8997 22.0109C43.9364 22.0109 43.9584 22.0109 43.9657 22.0109C44.1564 22.0109 44.3177 21.9449 44.4497 21.8129C44.5891 21.6736 44.6624 21.5086 44.6697 21.3179H44.7027ZM44.7027 15.2239H44.6697C44.6624 15.0332 44.5891 14.8719 44.4497 14.7399C44.3177 14.6006 44.1564 14.5309 43.9657 14.5309C43.9584 14.5309 43.9364 14.5309 43.8997 14.5309C43.8631 14.5309 43.8374 14.5309 43.8227 14.5309V14.4209H44.7027V15.2239ZM46.9027 21.3179H46.9357C46.9357 21.5086 47.0054 21.6736 47.1447 21.8129C47.2841 21.9449 47.4491 22.0109 47.6397 22.0109C47.6544 22.0109 47.6764 22.0109 47.7057 22.0109C47.7424 22.0109 47.7644 22.0109 47.7717 22.0109V22.1209H46.9027V21.3179Z" fill="black"/>
<path d="M218.29 38.7861V37.2917C219.282 37.2406 220.02 37.1384 220.504 36.9851C221.012 36.8063 221.339 36.4998 221.484 36.0655C221.653 35.6057 221.738 34.916 221.738 33.9964V16.447C221.738 15.5274 221.653 14.8505 221.484 14.4162C221.314 13.9564 220.988 13.6371 220.504 13.4583C220.02 13.2795 219.282 13.1773 218.29 13.1517V11.6573C218.605 11.6829 219.028 11.7084 219.56 11.734C220.093 11.734 220.782 11.734 221.629 11.734C222.5 11.734 223.576 11.734 224.859 11.734C226.625 11.734 228.028 11.734 229.068 11.734C230.109 11.7084 230.943 11.6957 231.572 11.6957C235.347 11.6957 238.189 12.3598 240.101 13.6882C242.012 15.0165 242.968 16.9962 242.968 19.6274C242.968 21.4411 242.496 22.9993 241.552 24.3021C240.609 25.5793 239.254 26.55 237.488 27.2142C235.722 27.8784 233.58 28.2105 231.064 28.2105C230.508 28.2105 229.951 28.1977 229.395 28.1721C228.839 28.1211 228.318 28.0572 227.835 27.9806C227.375 27.8784 226.976 27.7762 226.637 27.674V26.218C227.097 26.3712 227.629 26.499 228.234 26.6011C228.839 26.6778 229.492 26.7161 230.193 26.7161C232.032 26.7161 233.351 26.1796 234.149 25.1068C234.947 24.0083 235.347 22.2329 235.347 19.7806C235.347 17.4816 235.008 15.8084 234.33 14.7611C233.677 13.6882 232.637 13.1517 231.21 13.1517H229.105V33.7282C229.105 34.75 229.214 35.5163 229.431 36.0272C229.649 36.5126 230.109 36.8446 230.81 37.0235C231.512 37.1767 232.576 37.2661 234.004 37.2917V38.7861C233.496 38.7861 232.806 38.7733 231.935 38.7477C231.064 38.7222 230.085 38.7094 228.996 38.7094C227.907 38.6839 226.782 38.6711 225.621 38.6711C224.145 38.6711 222.802 38.6839 221.593 38.7094C220.407 38.735 219.306 38.7605 218.29 38.7861Z" fill="black"/>
<path d="M193.892 39.0543L184.493 14.7611H184.057V32.0422C184.057 33.3705 184.142 34.4051 184.311 35.1459C184.48 35.8612 184.855 36.3721 185.436 36.6786C186.041 36.9851 186.972 37.1895 188.23 37.2917V38.7861C187.722 38.735 187.021 38.7094 186.126 38.7094C185.23 38.6839 184.323 38.6711 183.404 38.6711C182.557 38.6711 181.747 38.6839 180.972 38.7094C180.222 38.7094 179.618 38.735 179.158 38.7861V37.2917C180.15 37.1895 180.888 36.9851 181.372 36.6786C181.855 36.3721 182.182 35.8739 182.351 35.1842C182.521 34.4945 182.605 33.5621 182.605 32.3871V16.447C182.605 15.5019 182.521 14.8121 182.351 14.3779C182.206 13.9436 181.892 13.6371 181.408 13.4583C180.924 13.2795 180.174 13.1773 179.158 13.1517V11.6573C179.69 11.6829 180.392 11.7084 181.263 11.734C182.134 11.7595 183.077 11.7723 184.093 11.7723C185.448 11.7723 186.73 11.7595 187.94 11.734C189.15 11.7084 190.251 11.6829 191.243 11.6573L197.993 29.0918L196.722 30.2413L203.146 11.6573C204.186 11.7084 205.142 11.7468 206.013 11.7723C206.884 11.7723 207.791 11.7723 208.734 11.7723C209.993 11.7723 211.19 11.7595 212.327 11.734C213.464 11.7084 214.372 11.6829 215.049 11.6573V13.1517C214.033 13.1773 213.283 13.2795 212.799 13.4583C212.315 13.6115 211.988 13.9181 211.819 14.3779C211.674 14.8121 211.601 15.5019 211.601 16.447V33.9964C211.601 34.916 211.686 35.6057 211.855 36.0655C212.025 36.4998 212.351 36.8063 212.835 36.9851C213.319 37.1384 214.057 37.2406 215.049 37.2917V38.7861C214.275 38.735 213.259 38.7094 212.001 38.7094C210.767 38.6839 209.424 38.6711 207.972 38.6711C206.4 38.6711 204.972 38.6839 203.69 38.7094C202.432 38.7094 201.44 38.735 200.714 38.7861V37.2917C201.706 37.2406 202.456 37.1384 202.964 36.9851C203.472 36.8319 203.811 36.5253 203.98 36.0655C204.15 35.6057 204.234 34.916 204.234 33.9964V14.1097H203.799L195.234 39.0543H193.892Z" fill="black"/>
<path d="M161.69 38.7861V37.2917C162.707 37.2406 163.457 37.1384 163.94 36.9851C164.424 36.8319 164.739 36.5253 164.884 36.0655C165.053 35.6057 165.138 34.916 165.138 33.9964V16.447C165.138 15.5019 165.053 14.8121 164.884 14.3779C164.739 13.9181 164.412 13.6115 163.904 13.4583C163.42 13.2795 162.682 13.1773 161.69 13.1517V11.6573C162.392 11.6829 163.372 11.7084 164.63 11.734C165.888 11.7595 167.34 11.7723 168.985 11.7723C170.509 11.7723 171.864 11.7595 173.049 11.734C174.259 11.7084 175.215 11.6829 175.916 11.6573V13.1517C174.924 13.1773 174.174 13.2795 173.666 13.4583C173.182 13.6115 172.868 13.9181 172.723 14.3779C172.578 14.8121 172.505 15.5019 172.505 16.447V33.9964C172.505 34.916 172.578 35.6057 172.723 36.0655C172.892 36.4998 173.219 36.8063 173.703 36.9851C174.186 37.1384 174.924 37.2406 175.916 37.2917V38.7861C175.215 38.735 174.259 38.7094 173.049 38.7094C171.864 38.6839 170.509 38.6711 168.985 38.6711C167.34 38.6711 165.888 38.6839 164.63 38.7094C163.372 38.7094 162.392 38.735 161.69 38.7861Z" fill="black"/>
<path d="M135.126 38.7861V37.2917C136.167 37.2406 136.929 37.1384 137.413 36.9851C137.897 36.8063 138.211 36.4998 138.356 36.0655C138.501 35.6057 138.574 34.916 138.574 33.9964V16.447C138.574 15.5019 138.489 14.8121 138.32 14.3779C138.175 13.9181 137.86 13.6115 137.376 13.4583C136.892 13.2795 136.142 13.1773 135.126 13.1517V11.6573C136.191 11.6829 137.352 11.7084 138.61 11.734C139.868 11.7595 141.138 11.7723 142.421 11.7723C144.163 11.7723 145.663 11.7595 146.921 11.734C148.203 11.7084 149.267 11.6829 150.114 11.6573V13.1517C148.905 13.1773 147.997 13.2795 147.392 13.4583C146.812 13.6371 146.425 13.9564 146.231 14.4162C146.038 14.876 145.941 15.553 145.941 16.447V34.7627C145.941 35.4524 145.977 35.9761 146.05 36.3337C146.147 36.6658 146.34 36.8957 146.63 37.0235C146.945 37.1256 147.417 37.1767 148.046 37.1767H148.445C149.413 37.1767 150.32 36.9724 151.167 36.5637C152.013 36.1294 152.8 35.5163 153.526 34.7244C154.251 33.907 154.905 32.9363 155.485 31.8123C156.09 30.6883 156.622 29.4366 157.082 28.0572H158.57C158.401 29.9731 158.267 31.8251 158.171 33.6132C158.098 35.4014 158.086 37.1256 158.134 38.7861C157.094 38.735 155.824 38.7094 154.324 38.7094C152.824 38.6839 150.961 38.6711 148.735 38.6711C145.735 38.6711 143.074 38.6839 140.751 38.7094C138.453 38.7094 136.578 38.735 135.126 38.7861Z" fill="black"/>
<path d="M117.371 39.3225C114.492 39.3225 111.976 38.7222 109.823 37.5216C107.67 36.321 105.988 34.6606 104.778 32.5403C103.593 30.4201 103 27.9806 103 25.2217C103 22.4629 103.593 20.0233 104.778 17.9031C105.988 15.7829 107.67 14.1224 109.823 12.9218C112 11.7212 114.516 11.1209 117.371 11.1209C120.226 11.1209 122.73 11.7212 124.883 12.9218C127.037 14.1224 128.706 15.7829 129.891 17.9031C131.101 20.0233 131.706 22.4629 131.706 25.2217C131.706 27.9806 131.101 30.4201 129.891 32.5403C128.706 34.6606 127.037 36.321 124.883 37.5216C122.73 38.7222 120.226 39.3225 117.371 39.3225ZM117.371 37.9048C118.629 37.9048 119.766 37.3939 120.783 36.3721C121.799 35.3247 122.597 33.8559 123.178 31.9656C123.783 30.0497 124.085 27.8017 124.085 25.2217C124.085 22.6161 123.783 20.3682 123.178 18.4779C122.573 16.5875 121.75 15.1315 120.71 14.1097C119.694 13.0623 118.569 12.5387 117.335 12.5387C116.101 12.5387 114.976 13.0623 113.96 14.1097C112.944 15.1315 112.133 16.6003 111.528 18.5162C110.924 20.4065 110.621 22.6417 110.621 25.2217C110.621 27.8017 110.924 30.0497 111.528 31.9656C112.158 33.8559 112.98 35.3247 113.996 36.3721C115.012 37.3939 116.137 37.9048 117.371 37.9048Z" fill="black"/>
<path d="M120.484 69.2338L112.887 59.5403H112.694V66.2822C112.694 66.8413 112.731 67.2768 112.807 67.5887C112.882 67.8897 113.049 68.1048 113.307 68.2338C113.576 68.3628 113.989 68.4489 114.549 68.4919V69.1209C114.334 69.0994 114.033 69.0887 113.645 69.0887C113.258 69.0779 112.86 69.0725 112.452 69.0725C112.054 69.0725 111.683 69.0779 111.339 69.0887C111.006 69.0887 110.731 69.0994 110.516 69.1209V68.4919C110.957 68.4489 111.285 68.3628 111.5 68.2338C111.715 68.1048 111.86 67.8951 111.936 67.6048C112.011 67.3145 112.049 66.922 112.049 66.4274V59.7177C112.049 59.3198 112.011 59.0295 111.936 58.8467C111.871 58.6639 111.731 58.5349 111.516 58.4596C111.301 58.3844 110.968 58.3413 110.516 58.3306V57.7016C110.753 57.7123 111.07 57.7231 111.468 57.7338C111.877 57.7446 112.307 57.7499 112.758 57.7499C113.285 57.7499 113.774 57.7446 114.226 57.7338C114.678 57.7231 115.092 57.7123 115.468 57.7016L120.291 63.8145H120.484V60.5403C120.484 59.9811 120.446 59.551 120.371 59.2499C120.296 58.9381 120.124 58.7177 119.855 58.5887C119.597 58.4489 119.188 58.3628 118.629 58.3306V57.7016C118.844 57.7123 119.145 57.7231 119.533 57.7338C119.92 57.7446 120.312 57.7499 120.71 57.7499C121.108 57.7499 121.479 57.7446 121.823 57.7338C122.178 57.7231 122.457 57.7123 122.662 57.7016V58.3306C122.221 58.3628 121.893 58.4489 121.678 58.5887C121.463 58.7177 121.317 58.9274 121.242 59.2177C121.167 59.4973 121.129 59.8897 121.129 60.3951V69.2338H120.484ZM126.438 69.1209V68.4919C126.804 68.4166 127.121 68.2876 127.39 68.1048C127.659 67.922 127.911 67.6585 128.148 67.3145C128.384 66.9704 128.632 66.5134 128.89 65.9435L132.712 57.5887H133.293L138.051 66.9919C138.32 67.5188 138.594 67.8951 138.874 68.1209C139.153 68.336 139.503 68.4596 139.922 68.4919V69.1209C139.535 69.0994 139.046 69.0887 138.454 69.0887C137.874 69.0779 137.202 69.0725 136.438 69.0725C135.61 69.0725 134.901 69.0779 134.309 69.0887C133.729 69.0887 133.288 69.0994 132.987 69.1209V68.4919C133.503 68.4811 133.89 68.422 134.148 68.3145C134.417 68.1962 134.567 68.0241 134.6 67.7983C134.643 67.5725 134.567 67.2822 134.374 66.9274L131.39 61.0403L131.874 60.9112L129.89 65.2499C129.578 65.9381 129.411 66.5188 129.39 66.9919C129.379 67.465 129.514 67.8306 129.793 68.0887C130.083 68.336 130.524 68.4704 131.116 68.4919V69.1209C130.664 69.1102 130.277 69.1048 129.954 69.1048C129.643 69.094 129.363 69.0887 129.116 69.0887C128.868 69.0779 128.621 69.0725 128.374 69.0725C127.987 69.0725 127.637 69.0779 127.325 69.0887C127.014 69.0887 126.718 69.0994 126.438 69.1209ZM129.325 65.7661L129.6 65.137H134.454L134.777 65.7661H129.325ZM150.885 69.2338L146.708 59.008H146.514V66.2822C146.514 66.8413 146.552 67.2768 146.627 67.5887C146.702 67.8897 146.869 68.1048 147.127 68.2338C147.396 68.3628 147.81 68.4489 148.369 68.4919V69.1209C148.143 69.0994 147.831 69.0887 147.433 69.0887C147.036 69.0779 146.632 69.0725 146.224 69.0725C145.847 69.0725 145.487 69.0779 145.143 69.0887C144.81 69.0887 144.541 69.0994 144.337 69.1209V68.4919C144.778 68.4489 145.106 68.3628 145.321 68.2338C145.536 68.1048 145.681 67.8951 145.756 67.6048C145.831 67.3145 145.869 66.922 145.869 66.4274V59.7177C145.869 59.3198 145.831 59.0295 145.756 58.8467C145.692 58.6639 145.552 58.5349 145.337 58.4596C145.122 58.3844 144.788 58.3413 144.337 58.3306V57.7016C144.573 57.7123 144.885 57.7231 145.272 57.7338C145.659 57.7446 146.079 57.7499 146.53 57.7499C147.132 57.7499 147.702 57.7446 148.24 57.7338C148.778 57.7231 149.267 57.7123 149.708 57.7016L152.708 65.0403L152.143 65.5241L154.998 57.7016C155.46 57.7231 155.885 57.7392 156.272 57.7499C156.659 57.7499 157.062 57.7499 157.482 57.7499C158.041 57.7499 158.573 57.7446 159.079 57.7338C159.584 57.7231 159.987 57.7123 160.288 57.7016V58.3306C159.837 58.3413 159.503 58.3844 159.288 58.4596C159.073 58.5241 158.928 58.6532 158.853 58.8467C158.788 59.0295 158.756 59.3198 158.756 59.7177V67.1048C158.756 67.4919 158.794 67.7822 158.869 67.9757C158.944 68.1585 159.089 68.2876 159.304 68.3628C159.519 68.4274 159.847 68.4704 160.288 68.4919V69.1209C159.944 69.0994 159.493 69.0887 158.933 69.0887C158.385 69.0779 157.788 69.0725 157.143 69.0725C156.444 69.0725 155.81 69.0779 155.24 69.0887C154.681 69.0887 154.24 69.0994 153.917 69.1209V68.4919C154.358 68.4704 154.692 68.4274 154.917 68.3628C155.143 68.2983 155.294 68.1693 155.369 67.9757C155.444 67.7822 155.482 67.4919 155.482 67.1048V58.7338H155.288L151.482 69.2338H150.885ZM165.329 69.1209V68.4919C165.78 68.4704 166.114 68.4274 166.329 68.3628C166.544 68.2983 166.684 68.1693 166.748 67.9757C166.823 67.7822 166.861 67.4919 166.861 67.1048V59.7177C166.861 59.3306 166.823 59.0456 166.748 58.8628C166.684 58.6693 166.539 58.5349 166.313 58.4596C166.098 58.3844 165.77 58.3413 165.329 58.3306V57.7016C165.92 57.7123 166.689 57.7231 167.635 57.7338C168.592 57.7446 169.705 57.7499 170.974 57.7499C171.533 57.7499 172.044 57.7499 172.506 57.7499C172.969 57.7392 173.388 57.7338 173.764 57.7338C174.141 57.7231 174.479 57.7123 174.78 57.7016C174.791 58.3682 174.818 59.0241 174.861 59.6693C174.904 60.3037 174.969 60.9381 175.055 61.5725H174.41C174.248 60.8521 174.033 60.2553 173.764 59.7822C173.496 59.3091 173.168 58.9596 172.78 58.7338C172.393 58.4973 171.947 58.379 171.442 58.379H170.135V67.4274C170.135 67.7177 170.157 67.9381 170.2 68.0887C170.243 68.2284 170.334 68.3252 170.474 68.379C170.614 68.422 170.813 68.4435 171.071 68.4435H171.248C171.786 68.4435 172.291 68.2983 172.764 68.008C173.237 67.7177 173.668 67.2876 174.055 66.7177C174.453 66.137 174.797 65.4327 175.087 64.6048H175.748C175.673 65.4757 175.614 66.2822 175.571 67.0241C175.539 67.7553 175.533 68.4542 175.555 69.1209C174.996 69.0994 174.334 69.0887 173.571 69.0887C172.807 69.0779 171.893 69.0725 170.829 69.0725C169.592 69.0725 168.506 69.0779 167.571 69.0887C166.646 69.0887 165.899 69.0994 165.329 69.1209ZM169.619 63.6854V63.0725H172.635V63.6854H169.619ZM172.684 65.8145C172.63 65.3521 172.517 64.965 172.345 64.6532C172.173 64.3306 171.947 64.0887 171.668 63.9274C171.399 63.7661 171.071 63.6854 170.684 63.6854V63.0725C171.189 63.0725 171.614 62.8844 171.958 62.508C172.313 62.1209 172.539 61.5994 172.635 60.9435H173.28C173.237 61.5671 173.216 62.0564 173.216 62.4112C173.216 62.7553 173.216 63.0779 173.216 63.379C173.216 63.594 173.221 63.8145 173.232 64.0403C173.243 64.2553 173.254 64.508 173.264 64.7983C173.286 65.0779 173.307 65.4166 173.329 65.8145H172.684ZM186.111 69.3467C185.455 69.3467 184.906 69.2822 184.465 69.1532C184.035 69.0349 183.68 68.9166 183.401 68.7983C183.132 68.6693 182.912 68.6048 182.74 68.6048C182.6 68.6048 182.487 68.6585 182.401 68.7661C182.326 68.8628 182.266 69.0295 182.223 69.2661H181.578C181.6 68.965 181.611 68.6209 181.611 68.2338C181.621 67.8467 181.627 67.3575 181.627 66.7661C181.637 66.1747 181.643 65.422 181.643 64.508H182.288C182.46 65.8628 182.847 66.8897 183.449 67.5887C184.051 68.2768 184.858 68.6209 185.869 68.6209C186.481 68.6209 186.96 68.4865 187.304 68.2177C187.659 67.9381 187.836 67.5564 187.836 67.0725C187.836 66.7284 187.74 66.422 187.546 66.1532C187.352 65.8736 187.041 65.6102 186.611 65.3628C186.191 65.1155 185.637 64.8575 184.949 64.5887C184.186 64.2983 183.562 63.9757 183.078 63.6209C182.605 63.2553 182.25 62.8467 182.014 62.3951C181.788 61.9327 181.675 61.4166 181.675 60.8467C181.675 60.1585 181.836 59.5671 182.159 59.0725C182.481 58.5671 182.938 58.1747 183.53 57.8951C184.132 57.6155 184.831 57.4757 185.627 57.4757C186.229 57.4757 186.723 57.5403 187.111 57.6693C187.508 57.7983 187.836 57.9274 188.094 58.0564C188.352 58.1747 188.567 58.2338 188.74 58.2338C188.879 58.2338 188.987 58.1854 189.062 58.0887C189.148 57.9811 189.213 57.8037 189.256 57.5564H189.901C189.879 57.8145 189.858 58.0994 189.836 58.4112C189.826 58.7231 189.815 59.1317 189.804 59.637C189.804 60.1317 189.804 60.793 189.804 61.6209H189.159C189.008 60.5671 188.632 59.7284 188.03 59.1048C187.438 58.4811 186.723 58.1693 185.885 58.1693C185.369 58.1693 184.965 58.2983 184.675 58.5564C184.385 58.8037 184.24 59.1532 184.24 59.6048C184.24 59.9274 184.326 60.2123 184.498 60.4596C184.67 60.6962 184.976 60.9327 185.417 61.1693C185.858 61.4059 186.46 61.6747 187.223 61.9757C188.363 62.4166 189.191 62.9489 189.707 63.5725C190.223 64.1854 190.481 64.922 190.481 65.7822C190.481 66.8897 190.089 67.7607 189.304 68.3951C188.519 69.0295 187.455 69.3467 186.111 69.3467ZM197.246 69.1209V68.4919C197.859 68.4919 198.322 68.4596 198.634 68.3951C198.945 68.3198 199.155 68.1801 199.263 67.9757C199.37 67.7607 199.424 67.4327 199.424 66.9919V58.379H199.295C198.8 58.379 198.359 58.5134 197.972 58.7822C197.596 59.051 197.263 59.4596 196.972 60.008C196.693 60.5456 196.451 61.2284 196.246 62.0564H195.601C195.687 61.3467 195.752 60.6317 195.795 59.9112C195.838 59.1801 195.859 58.4435 195.859 57.7016C196.365 57.7123 196.924 57.7231 197.537 57.7338C198.16 57.7446 198.779 57.7499 199.392 57.7499C200.015 57.7499 200.574 57.7499 201.069 57.7499C201.564 57.7499 202.117 57.7499 202.73 57.7499C203.343 57.7499 203.956 57.7446 204.569 57.7338C205.193 57.7231 205.752 57.7123 206.246 57.7016C206.257 58.4542 206.284 59.1908 206.327 59.9112C206.37 60.6317 206.435 61.3467 206.521 62.0564H205.875C205.714 61.4327 205.531 60.8951 205.327 60.4435C205.134 59.9811 204.913 59.5994 204.666 59.2983C204.419 58.9865 204.139 58.7553 203.827 58.6048C203.526 58.4542 203.193 58.379 202.827 58.379H202.698V66.9919C202.698 67.4327 202.752 67.7607 202.859 67.9757C202.967 68.1801 203.177 68.3198 203.488 68.3951C203.8 68.4596 204.263 68.4919 204.875 68.4919V69.1209C204.467 69.1102 203.919 69.0994 203.23 69.0887C202.553 69.0779 201.843 69.0725 201.101 69.0725C200.327 69.0725 199.596 69.0779 198.908 69.0887C198.22 69.0994 197.666 69.1102 197.246 69.1209ZM210.071 69.1209V68.4919C210.437 68.4166 210.754 68.2876 211.023 68.1048C211.291 67.922 211.544 67.6585 211.781 67.3145C212.017 66.9704 212.265 66.5134 212.523 65.9435L216.345 57.5887H216.926L221.684 66.9919C221.953 67.5188 222.227 67.8951 222.507 68.1209C222.786 68.336 223.136 68.4596 223.555 68.4919V69.1209C223.168 69.0994 222.679 69.0887 222.087 69.0887C221.507 69.0779 220.835 69.0725 220.071 69.0725C219.243 69.0725 218.533 69.0779 217.942 69.0887C217.361 69.0887 216.921 69.0994 216.619 69.1209V68.4919C217.136 68.4811 217.523 68.422 217.781 68.3145C218.05 68.1962 218.2 68.0241 218.232 67.7983C218.275 67.5725 218.2 67.2822 218.007 66.9274L215.023 61.0403L215.507 60.9112L213.523 65.2499C213.211 65.9381 213.044 66.5188 213.023 66.9919C213.012 67.465 213.146 67.8306 213.426 68.0887C213.716 68.336 214.157 68.4704 214.748 68.4919V69.1209C214.297 69.1102 213.91 69.1048 213.587 69.1048C213.275 69.094 212.996 69.0887 212.748 69.0887C212.501 69.0779 212.254 69.0725 212.007 69.0725C211.619 69.0725 211.27 69.0779 210.958 69.0887C210.646 69.0887 210.351 69.0994 210.071 69.1209ZM212.958 65.7661L213.232 65.137H218.087L218.41 65.7661H212.958ZM226.252 72.9757V72.3467C226.854 72.293 227.349 72.137 227.736 71.879C228.123 71.6317 228.408 71.2714 228.591 70.7983C228.784 70.3252 228.881 69.7392 228.881 69.0403V59.7177C228.881 59.3306 228.843 59.0456 228.768 58.8628C228.693 58.6693 228.532 58.5349 228.284 58.4596C228.048 58.3844 227.682 58.3413 227.187 58.3306V57.7016C227.768 57.7338 228.854 57.7499 230.446 57.7499C232.037 57.7499 233.118 57.7338 233.687 57.7016V58.3306C233.257 58.3413 232.929 58.3844 232.704 58.4596C232.489 58.5241 232.343 58.6532 232.268 58.8467C232.193 59.0403 232.155 59.3306 232.155 59.7177V67.5725C232.155 68.8091 231.946 69.8252 231.526 70.6209C231.118 71.4274 230.478 72.0188 229.607 72.3951C228.736 72.7822 227.618 72.9757 226.252 72.9757Z" fill="black"/>
<path d="M184 54.1209L186 56.1209L188 54.1209" stroke="black" stroke-width="1.5" stroke-linecap="round"/>
<path d="M14.5002 61.6209H13.0002H12.5002L12.0002 62.6209V65.6209H29.5002V64.6209" stroke="black" stroke-width="2" stroke-linecap="round"/>
<path d="M12.0002 30.1209V29.1209H29.5002V30.1209" stroke="black" stroke-width="2" stroke-linecap="round"/>
<mask id="mask0_25_115" style="mask-type:luminance" maskUnits="userSpaceOnUse" x="51" y="28" width="21" height="40">
<path d="M71.0002 28.1209H51.0002V67.1209H71.0002V28.1209Z" fill="white"/>
</mask>
<g mask="url(#mask0_25_115)">
<path d="M52.0002 30.1209V32.6209L52.5002 33.1209H68.5002L69.5002 32.6209V30.1209" stroke="black" stroke-width="2" stroke-linecap="round"/>
<path d="M54.5002 61.6209H68.5002L69.5002 62.6209V64.6209" stroke="black" stroke-width="2" stroke-linecap="round"/>
<path d="M67.5002 34.1209V61.1209" stroke="black" stroke-width="2" stroke-linecap="round"/>
<path d="M63.0002 34.1209V61.1209" stroke="black" stroke-width="2" stroke-linecap="round"/>
<path d="M58.5002 34.1209V61.1209" stroke="black" stroke-width="2" stroke-linecap="round"/>
<path d="M54.0002 34.1209V61.6209" stroke="black" stroke-width="2" stroke-linecap="round"/>
<path d="M54.5002 61.6209H53.0002H52.5002L52.0002 62.6209V65.6209H69.5002V64.6209" stroke="black" stroke-width="2" stroke-linecap="round"/>
<path d="M52.0002 30.1209V29.1209H69.5002V30.1209" stroke="black" stroke-width="2" stroke-linecap="round"/>
</g>
<path d="M9.00024 70.1209V66.6209L10.0002 66.1209H15.5002" stroke="black" stroke-width="2" stroke-linecap="round"/>
<path d="M9.00024 70.1209H72.0002" stroke="black" stroke-width="2" stroke-linecap="round"/>
</g>
<defs>
<clipPath id="clip0_25_115">
<rect width="252" height="77" fill="white"/>
</clipPath>
</defs>
</svg>
