<svg width="245" height="79" viewBox="0 0 245 79" fill="none" xmlns="http://www.w3.org/2000/svg">
<g clip-path="url(#clip0_30_2)">
<path d="M93.75 53.2136H243.75" stroke="#C6AC8F" stroke-width="1.5" stroke-linecap="round"/>
</g>
<path d="M214.29 44.1287V42.6343C215.282 42.5832 216.02 42.481 216.504 42.3278C217.012 42.149 217.338 41.8424 217.483 41.4082C217.653 40.9483 217.737 40.2586 217.737 39.339V21.7897C217.737 20.8701 217.653 20.1931 217.483 19.7589C217.314 19.299 216.987 18.9797 216.504 18.8009C216.02 18.6221 215.282 18.5199 214.29 18.4944V17C214.604 17.0255 215.028 17.0511 215.56 17.0766C216.092 17.0766 216.782 17.0766 217.629 17.0766C218.5 17.0766 219.576 17.0766 220.858 17.0766C222.625 17.0766 224.028 17.0766 225.068 17.0766C226.108 17.0511 226.943 17.0383 227.572 17.0383C231.346 17.0383 234.189 17.7025 236.1 19.0308C238.012 20.3592 238.967 22.3389 238.967 24.97C238.967 26.7837 238.496 28.3419 237.552 29.6447C236.608 30.922 235.254 31.8927 233.487 32.5568C231.721 33.221 229.58 33.5531 227.064 33.5531C226.508 33.5531 225.951 33.5403 225.395 33.5148C224.838 33.4637 224.318 33.3998 223.834 33.3232C223.375 33.221 222.975 33.1188 222.637 33.0166V31.5606C223.096 31.7139 223.629 31.8416 224.233 31.9438C224.838 32.0204 225.492 32.0587 226.193 32.0587C228.032 32.0587 229.35 31.5223 230.149 30.4494C230.947 29.3509 231.346 27.5756 231.346 25.1233C231.346 22.8242 231.008 21.1511 230.33 20.1037C229.677 19.0308 228.637 18.4944 227.209 18.4944H225.104V39.0708C225.104 40.0926 225.213 40.8589 225.431 41.3698C225.649 41.8552 226.108 42.1873 226.81 42.3661C227.512 42.5194 228.576 42.6088 230.004 42.6343V44.1287C229.496 44.1287 228.806 44.1159 227.935 44.0904C227.064 44.0648 226.084 44.0521 224.996 44.0521C223.907 44.0265 222.782 44.0137 221.621 44.0137C220.145 44.0137 218.802 44.0265 217.592 44.0521C216.407 44.0776 215.306 44.1031 214.29 44.1287Z" fill="#F7F3EE"/>
<path d="M189.891 44.3969L180.492 20.1037H180.057V37.3848C180.057 38.7132 180.141 39.7477 180.311 40.4885C180.48 41.2038 180.855 41.7147 181.436 42.0212C182.041 42.3278 182.972 42.5321 184.23 42.6343V44.1287C183.722 44.0776 183.02 44.0521 182.125 44.0521C181.23 44.0265 180.323 44.0137 179.404 44.0137C178.557 44.0137 177.746 44.0265 176.972 44.0521C176.222 44.0521 175.617 44.0776 175.158 44.1287V42.6343C176.149 42.5321 176.887 42.3278 177.371 42.0212C177.855 41.7147 178.182 41.2166 178.351 40.5269C178.52 39.8371 178.605 38.9048 178.605 37.7297V21.7897C178.605 20.8445 178.52 20.1548 178.351 19.7205C178.206 19.2863 177.891 18.9797 177.408 18.8009C176.924 18.6221 176.174 18.5199 175.158 18.4944V17C175.69 17.0255 176.391 17.0511 177.262 17.0766C178.133 17.1022 179.077 17.115 180.093 17.115C181.448 17.115 182.73 17.1022 183.94 17.0766C185.149 17.0511 186.25 17.0255 187.242 17L193.992 34.4344L192.722 35.5839L199.145 17C200.186 17.0511 201.141 17.0894 202.012 17.115C202.883 17.115 203.791 17.115 204.734 17.115C205.992 17.115 207.19 17.1022 208.327 17.0766C209.464 17.0511 210.371 17.0255 211.049 17V18.4944C210.033 18.5199 209.283 18.6221 208.799 18.8009C208.315 18.9542 207.988 19.2607 207.819 19.7205C207.674 20.1548 207.601 20.8445 207.601 21.7897V39.339C207.601 40.2586 207.686 40.9483 207.855 41.4082C208.025 41.8424 208.351 42.149 208.835 42.3278C209.319 42.481 210.057 42.5832 211.049 42.6343V44.1287C210.275 44.0776 209.258 44.0521 208 44.0521C206.766 44.0265 205.424 44.0137 203.972 44.0137C202.4 44.0137 200.972 44.0265 199.69 44.0521C198.432 44.0521 197.44 44.0776 196.714 44.1287V42.6343C197.706 42.5832 198.456 42.481 198.964 42.3278C199.472 42.1745 199.811 41.868 199.98 41.4082C200.15 40.9483 200.234 40.2586 200.234 39.339V19.4523H199.799L191.234 44.3969H189.891Z" fill="#F7F3EE"/>
<path d="M157.69 44.1287V42.6343C158.706 42.5832 159.456 42.481 159.94 42.3278C160.424 42.1745 160.739 41.868 160.884 41.4082C161.053 40.9483 161.138 40.2586 161.138 39.339V21.7897C161.138 20.8445 161.053 20.1548 160.884 19.7205C160.739 19.2607 160.412 18.9542 159.904 18.8009C159.42 18.6221 158.682 18.5199 157.69 18.4944V17C158.392 17.0255 159.372 17.0511 160.63 17.0766C161.888 17.1022 163.339 17.115 164.984 17.115C166.509 17.115 167.864 17.1022 169.049 17.0766C170.259 17.0511 171.214 17.0255 171.916 17V18.4944C170.924 18.5199 170.174 18.6221 169.666 18.8009C169.182 18.9542 168.868 19.2607 168.722 19.7205C168.577 20.1548 168.505 20.8445 168.505 21.7897V39.339C168.505 40.2586 168.577 40.9483 168.722 41.4082C168.892 41.8424 169.218 42.149 169.702 42.3278C170.186 42.481 170.924 42.5832 171.916 42.6343V44.1287C171.214 44.0776 170.259 44.0521 169.049 44.0521C167.864 44.0265 166.509 44.0137 164.984 44.0137C163.339 44.0137 161.888 44.0265 160.63 44.0521C159.372 44.0521 158.392 44.0776 157.69 44.1287Z" fill="#F7F3EE"/>
<path d="M131.126 44.1287V42.6343C132.166 42.5832 132.928 42.481 133.412 42.3278C133.896 42.149 134.211 41.8424 134.356 41.4082C134.501 40.9483 134.574 40.2586 134.574 39.339V21.7897C134.574 20.8445 134.489 20.1548 134.32 19.7205C134.174 19.2607 133.86 18.9542 133.376 18.8009C132.892 18.6221 132.142 18.5199 131.126 18.4944V17C132.191 17.0255 133.352 17.0511 134.61 17.0766C135.868 17.1022 137.138 17.115 138.421 17.115C140.162 17.115 141.662 17.1022 142.921 17.0766C144.203 17.0511 145.267 17.0255 146.114 17V18.4944C144.904 18.5199 143.997 18.6221 143.392 18.8009C142.812 18.9797 142.424 19.299 142.231 19.7589C142.037 20.2187 141.941 20.8956 141.941 21.7897V40.1054C141.941 40.7951 141.977 41.3187 142.049 41.6764C142.146 42.0085 142.34 42.2384 142.63 42.3661C142.945 42.4683 143.416 42.5194 144.046 42.5194H144.445C145.412 42.5194 146.32 42.315 147.166 41.9063C148.013 41.472 148.799 40.8589 149.525 40.067C150.251 39.2496 150.904 38.2789 151.485 37.1549C152.09 36.0309 152.622 34.7792 153.082 33.3998H154.57C154.4 35.3157 154.267 37.1677 154.171 38.9558C154.098 40.744 154.086 42.4683 154.134 44.1287C153.094 44.0776 151.824 44.0521 150.324 44.0521C148.824 44.0265 146.961 44.0137 144.735 44.0137C141.735 44.0137 139.074 44.0265 136.751 44.0521C134.453 44.0521 132.578 44.0776 131.126 44.1287Z" fill="#F7F3EE"/>
<path d="M112.371 46.2016C109.492 46.2016 106.976 45.6013 104.823 44.4007C102.669 43.2001 100.988 41.5396 99.7782 39.4194C98.5927 37.2992 98 34.8597 98 32.1008C98 29.3419 98.5927 26.9024 99.7782 24.7822C100.988 22.6619 102.669 21.0015 104.823 19.8009C107 18.6003 109.516 18 112.371 18C115.226 18 117.73 18.6003 119.883 19.8009C122.036 21.0015 123.706 22.6619 124.891 24.7822C126.101 26.9024 126.706 29.3419 126.706 32.1008C126.706 34.8597 126.101 37.2992 124.891 39.4194C123.706 41.5396 122.036 43.2001 119.883 44.4007C117.73 45.6013 115.226 46.2016 112.371 46.2016ZM112.371 44.7839C113.629 44.7839 114.766 44.273 115.782 43.2512C116.798 42.2038 117.597 40.735 118.177 38.8447C118.782 36.9288 119.085 34.6808 119.085 32.1008C119.085 29.4952 118.782 27.2473 118.177 25.3569C117.573 23.4666 116.75 22.0106 115.71 20.9888C114.693 19.9414 113.568 19.4177 112.335 19.4177C111.101 19.4177 109.976 19.9414 108.96 20.9888C107.944 22.0106 107.133 23.4794 106.528 25.3953C105.923 27.2856 105.621 29.5208 105.621 32.1008C105.621 34.6808 105.923 36.9288 106.528 38.8447C107.157 40.735 107.98 42.2038 108.996 43.2512C110.012 44.273 111.137 44.7839 112.371 44.7839Z" fill="#F7F3EE"/>
<g clip-path="url(#clip1_30_2)">
<path d="M180.75 59.2136L182.75 61.2136L184.75 59.2136" stroke="#F7F3EE" stroke-width="1.5" stroke-linecap="round"/>
</g>
<g clip-path="url(#clip2_30_2)">
<path d="M1.00024 21.1208L40.0002 1.12085L80.0002 21.1208" stroke="#C6AC8F" stroke-width="2" stroke-linecap="round"/>
<path d="M7.50024 26.1208V28.6208L8.00024 29.1208H72.5002L73.5002 28.6208V26.1208M5.00024 23.6208L40.5002 6.12085L76.0002 23.6208V25.1208H5.00024V23.6208Z" stroke="#C6AC8F" stroke-width="2" stroke-linecap="round"/>
<path d="M32.2342 14.2668C32.3956 14.2668 32.6119 14.2742 32.8832 14.2888C33.1546 14.3035 33.4369 14.3255 33.7302 14.3548C34.0236 14.3768 34.2802 14.4025 34.5002 14.4318C34.7202 14.4538 34.8632 14.4795 34.9292 14.5088L34.7092 16.1698H34.5992C34.5992 15.7665 34.4416 15.4402 34.1262 15.1908C33.8182 14.9415 33.3929 14.8168 32.8502 14.8168C32.4029 14.8168 32.0472 14.9048 31.7832 15.0808C31.5192 15.2495 31.3762 15.4695 31.3542 15.7408C31.3322 16.0048 31.4202 16.2102 31.6182 16.3568C31.8236 16.5035 32.0619 16.6392 32.3332 16.7638L34.3902 17.7208C34.8009 17.9042 35.1236 18.1718 35.3582 18.5238C35.5929 18.8758 35.6919 19.3195 35.6552 19.8548C35.6039 20.6395 35.2739 21.2408 34.6652 21.6588C34.0639 22.0695 33.2426 22.2748 32.2012 22.2748C31.7759 22.2748 31.3909 22.2418 31.0462 22.1758C30.7016 22.1098 30.4046 22.0255 30.1552 21.9228C29.9132 21.8128 29.7262 21.6918 29.5942 21.5598C29.5136 21.3765 29.4806 21.1528 29.4952 20.8888C29.5099 20.6248 29.5576 20.3645 29.6382 20.1078C29.7262 19.8438 29.8289 19.6348 29.9462 19.4808H30.0452C30.0232 19.8622 30.1039 20.2252 30.2872 20.5698C30.4706 20.9145 30.7456 21.1932 31.1122 21.4058C31.4789 21.6185 31.9189 21.7248 32.4322 21.7248C32.9602 21.7248 33.3489 21.6148 33.5982 21.3948C33.8549 21.1748 33.9832 20.9255 33.9832 20.6468C33.9832 20.4122 33.8916 20.1995 33.7082 20.0088C33.5322 19.8182 33.2352 19.6275 32.8172 19.4368L31.0242 18.6008C30.5182 18.3662 30.1479 18.0435 29.9132 17.6328C29.6859 17.2222 29.6052 16.7565 29.6712 16.2358C29.7226 15.8105 29.8582 15.4512 30.0782 15.1578C30.2982 14.8645 30.5879 14.6445 30.9472 14.4978C31.3139 14.3438 31.7429 14.2668 32.2342 14.2668ZM34.9512 14.3768L34.9182 14.6078H33.3232V14.3768H34.9512ZM42.9211 14.2668C42.9211 14.2668 42.9211 14.2852 42.9211 14.3218C42.9211 14.3512 42.9211 14.3658 42.9211 14.3658L38.9501 22.1208H36.4751V22.0218L40.1271 14.9598H36.6291V14.4098H41.7551C41.9018 14.4098 42.0558 14.4025 42.2171 14.3878C42.3858 14.3732 42.5324 14.3548 42.6571 14.3328C42.7891 14.3108 42.8771 14.2888 42.9211 14.2668ZM42.6681 21.5708L42.6021 22.1208H37.2891V21.5708H42.6681ZM43.1741 19.5688L42.7561 22.1208H40.3801L40.5671 21.7138L40.7761 21.5708C41.3041 21.5708 41.7734 21.3948 42.1841 21.0428C42.6021 20.6908 42.8954 20.1995 43.0641 19.5688H43.1741ZM38.1581 14.9598C37.7108 14.9672 37.3624 15.0992 37.1131 15.3558C36.8638 15.6052 36.7391 15.9498 36.7391 16.3898V16.4778H36.6291V14.9268H38.1581V14.9598ZM36.6291 14.2118C36.7024 14.2412 36.8124 14.2705 36.9591 14.2998C37.1131 14.3292 37.2818 14.3548 37.4651 14.3768C37.6484 14.3988 37.8171 14.4098 37.9711 14.4098L36.6291 14.5308V14.2118ZM46.7927 14.4208H48.1237C48.4537 14.4208 48.7911 14.4502 49.1357 14.5088C49.4804 14.5675 49.7957 14.6738 50.0817 14.8278C50.3677 14.9745 50.5987 15.1835 50.7747 15.4548C50.9507 15.7262 51.0387 16.0745 51.0387 16.4998C51.0387 16.7785 50.9874 17.0682 50.8847 17.3688C50.7821 17.6622 50.6024 17.9225 50.3457 18.1498C50.0964 18.3698 49.7407 18.5165 49.2787 18.5898C49.5867 18.6778 49.8544 18.8282 50.0817 19.0408C50.3091 19.2535 50.4887 19.4698 50.6207 19.6898C50.6354 19.7118 50.6721 19.7742 50.7307 19.8768C50.7894 19.9795 50.8627 20.1078 50.9507 20.2618C51.0461 20.4085 51.1451 20.5625 51.2477 20.7238C51.3504 20.8852 51.4531 21.0355 51.5557 21.1748C51.7244 21.4022 51.8711 21.5745 51.9957 21.6918C52.1204 21.8092 52.2451 21.8898 52.3697 21.9338C52.5017 21.9778 52.6557 22.0035 52.8317 22.0108V22.1208H51.4567C51.0167 22.1208 50.6097 22.0952 50.2357 22.0438C49.8617 21.9925 49.5244 21.8788 49.2237 21.7028C48.9304 21.5268 48.6701 21.2482 48.4427 20.8668C48.3621 20.7348 48.2961 20.6028 48.2447 20.4708C48.1934 20.3388 48.1494 20.2105 48.1127 20.0858C48.0761 19.9612 48.0431 19.8438 48.0137 19.7338C47.9917 19.6165 47.9697 19.5065 47.9477 19.4038C47.9257 19.2938 47.9001 19.1912 47.8707 19.0958C47.7974 18.8318 47.7094 18.6522 47.6067 18.5568C47.5041 18.4615 47.4014 18.3955 47.2987 18.3588V18.2488C47.3281 18.2488 47.3611 18.2488 47.3977 18.2488C47.4344 18.2488 47.4601 18.2488 47.4747 18.2488C47.6801 18.2488 47.8634 18.2012 48.0247 18.1058C48.1861 18.0105 48.3217 17.8638 48.4317 17.6658C48.5417 17.4678 48.6151 17.2112 48.6517 16.8958C48.6591 16.8372 48.6664 16.7748 48.6737 16.7088C48.6811 16.6355 48.6811 16.5475 48.6737 16.4448C48.6444 15.9022 48.5087 15.5245 48.2667 15.3118C48.0321 15.0992 47.7497 14.9928 47.4197 14.9928C47.3831 14.9928 47.3354 14.9928 47.2767 14.9928C47.2181 14.9928 47.1557 14.9928 47.0897 14.9928C47.0237 14.9928 46.9614 14.9928 46.9027 14.9928C46.9027 14.9928 46.8917 14.9452 46.8697 14.8498C46.8551 14.7545 46.8367 14.6592 46.8147 14.5638C46.8001 14.4685 46.7927 14.4208 46.7927 14.4208ZM46.9357 14.4208V22.1208H44.6697V14.4208H46.9357ZM44.7027 21.3178V22.1208H43.8227V22.0108C43.8374 22.0108 43.8631 22.0108 43.8997 22.0108C43.9364 22.0108 43.9584 22.0108 43.9657 22.0108C44.1564 22.0108 44.3177 21.9448 44.4497 21.8128C44.5891 21.6735 44.6624 21.5085 44.6697 21.3178H44.7027ZM44.7027 15.2238H44.6697C44.6624 15.0332 44.5891 14.8718 44.4497 14.7398C44.3177 14.6005 44.1564 14.5308 43.9657 14.5308C43.9584 14.5308 43.9364 14.5308 43.8997 14.5308C43.8631 14.5308 43.8374 14.5308 43.8227 14.5308V14.4208H44.7027V15.2238ZM46.9027 21.3178H46.9357C46.9357 21.5085 47.0054 21.6735 47.1447 21.8128C47.2841 21.9448 47.4491 22.0108 47.6397 22.0108C47.6544 22.0108 47.6764 22.0108 47.7057 22.0108C47.7424 22.0108 47.7644 22.0108 47.7717 22.0108V22.1208H46.9027V21.3178Z" fill="#C6AC8F"/>
</g>
<g clip-path="url(#clip3_30_2)">
<path d="M12 30V32.5L12.5 33H28.5L29.5 32.5V30" stroke="#C6AC8F" stroke-width="2" stroke-linecap="round"/>
<path d="M14.5 61.5H28.5L29.5 62.5V64.5" stroke="#C6AC8F" stroke-width="2" stroke-linecap="round"/>
<path d="M27.5 34V61" stroke="#C6AC8F" stroke-width="2" stroke-linecap="round"/>
<path d="M23 34V61" stroke="#C6AC8F" stroke-width="2" stroke-linecap="round"/>
<path d="M18.5 34V61" stroke="#C6AC8F" stroke-width="2" stroke-linecap="round"/>
<path d="M14 34V61.5" stroke="#C6AC8F" stroke-width="2" stroke-linecap="round"/>
<path d="M14.5 61.5H13H12.5L12 62.5V65.5H29.5V64.5" stroke="#C6AC8F" stroke-width="2" stroke-linecap="round"/>
<path d="M12 30V29H29.5V30" stroke="#C6AC8F" stroke-width="2" stroke-linecap="round"/>
</g>
<g clip-path="url(#clip4_30_2)">
<mask id="mask0_30_2" style="mask-type:luminance" maskUnits="userSpaceOnUse" x="50" y="28" width="20" height="39">
<path d="M50.5 28.5V66.5H69.5V28.5H50.5Z" fill="white" stroke="white"/>
</mask>
<g mask="url(#mask0_30_2)">
<path d="M69 30V32.5L68.5 33H52.5L51.5 32.5V30" stroke="#C6AC8F" stroke-width="2" stroke-linecap="round"/>
<path d="M66.5 61.5H52.5L51.5 62.5V64.5" stroke="#C6AC8F" stroke-width="2" stroke-linecap="round"/>
<path d="M53.5 34V61" stroke="#C6AC8F" stroke-width="2" stroke-linecap="round"/>
<path d="M58 34V61" stroke="#C6AC8F" stroke-width="2" stroke-linecap="round"/>
<path d="M62.5 34V61" stroke="#C6AC8F" stroke-width="2" stroke-linecap="round"/>
<path d="M67 34V61.5" stroke="#C6AC8F" stroke-width="2" stroke-linecap="round"/>
<path d="M66.5 61.5H68H68.5L69 62.5V65.5H51.5V64.5" stroke="#C6AC8F" stroke-width="2" stroke-linecap="round"/>
<path d="M69 30V29H51.5V30" stroke="#C6AC8F" stroke-width="2" stroke-linecap="round"/>
</g>
</g>
<path d="M72 70V67L71 66H12.5" stroke="#C6AC8F" stroke-width="2" stroke-linecap="round"/>
<path d="M72 70H74.5L75 70.5V74L74.5 75H6.5L6 74.5V70.5L6.5 70H9" stroke="#C6AC8F" stroke-width="2" stroke-linecap="round"/>
<path d="M9 70V66.5L10 66H15.5" stroke="#C6AC8F" stroke-width="2" stroke-linecap="round"/>
<path d="M9 70H72" stroke="#C6AC8F" stroke-width="2" stroke-linecap="round"/>
<g clip-path="url(#clip5_30_2)">
<path d="M116.968 74.2216L109.371 64.5281H109.177V71.2701C109.177 71.8292 109.215 72.2647 109.29 72.5765C109.366 72.8776 109.532 73.0926 109.79 73.2216C110.059 73.3507 110.473 73.4367 111.032 73.4797V74.1087C110.817 74.0872 110.516 74.0765 110.129 74.0765C109.742 74.0657 109.344 74.0604 108.935 74.0604C108.538 74.0604 108.167 74.0657 107.823 74.0765C107.489 74.0765 107.215 74.0872 107 74.1087V73.4797C107.441 73.4367 107.769 73.3507 107.984 73.2216C108.199 73.0926 108.344 72.8829 108.419 72.5926C108.495 72.3023 108.532 71.9099 108.532 71.4152V64.7056C108.532 64.3077 108.495 64.0174 108.419 63.8346C108.355 63.6518 108.215 63.5228 108 63.4475C107.785 63.3722 107.452 63.3292 107 63.3185V62.6894C107.237 62.7002 107.554 62.7109 107.952 62.7217C108.36 62.7324 108.79 62.7378 109.242 62.7378C109.769 62.7378 110.258 62.7324 110.71 62.7217C111.161 62.7109 111.575 62.7002 111.952 62.6894L116.774 68.8023H116.968V65.5281C116.968 64.969 116.93 64.5389 116.855 64.2378C116.78 63.926 116.608 63.7056 116.339 63.5765C116.081 63.4367 115.672 63.3507 115.113 63.3185V62.6894C115.328 62.7002 115.629 62.7109 116.016 62.7217C116.403 62.7324 116.796 62.7378 117.194 62.7378C117.591 62.7378 117.962 62.7324 118.306 62.7217C118.661 62.7109 118.941 62.7002 119.145 62.6894V63.3185C118.704 63.3507 118.376 63.4367 118.161 63.5765C117.946 63.7056 117.801 63.9152 117.726 64.2056C117.651 64.4851 117.613 64.8776 117.613 65.383V74.2216H116.968ZM122.922 74.1087V73.4797C123.287 73.4044 123.605 73.2754 123.873 73.0926C124.142 72.9098 124.395 72.6464 124.632 72.3023C124.868 71.9582 125.115 71.5013 125.373 70.9314L129.196 62.5765H129.777L134.535 71.9798C134.804 72.5066 135.078 72.8829 135.357 73.1087C135.637 73.3238 135.986 73.4475 136.406 73.4797V74.1087C136.019 74.0872 135.529 74.0765 134.938 74.0765C134.357 74.0657 133.685 74.0604 132.922 74.0604C132.094 74.0604 131.384 74.0657 130.793 74.0765C130.212 74.0765 129.771 74.0872 129.47 74.1087V73.4797C129.986 73.469 130.373 73.4098 130.632 73.3023C130.9 73.184 131.051 73.012 131.083 72.7862C131.126 72.5604 131.051 72.2701 130.857 71.9152L127.873 66.0281L128.357 65.8991L126.373 70.2378C126.062 70.926 125.895 71.5066 125.873 71.9798C125.863 72.4529 125.997 72.8184 126.277 73.0765C126.567 73.3238 127.008 73.4582 127.599 73.4797V74.1087C127.148 74.098 126.761 74.0926 126.438 74.0926C126.126 74.0819 125.847 74.0765 125.599 74.0765C125.352 74.0657 125.105 74.0604 124.857 74.0604C124.47 74.0604 124.121 74.0657 123.809 74.0765C123.497 74.0765 123.201 74.0872 122.922 74.1087ZM125.809 70.7539L126.083 70.1249H130.938L131.261 70.7539H125.809ZM147.369 74.2216L143.191 63.9959H142.998V71.2701C142.998 71.8292 143.035 72.2647 143.111 72.5765C143.186 72.8776 143.353 73.0926 143.611 73.2216C143.879 73.3507 144.293 73.4367 144.853 73.4797V74.1087C144.627 74.0872 144.315 74.0765 143.917 74.0765C143.519 74.0657 143.116 74.0604 142.707 74.0604C142.331 74.0604 141.971 74.0657 141.627 74.0765C141.293 74.0765 141.025 74.0872 140.82 74.1087V73.4797C141.261 73.4367 141.589 73.3507 141.804 73.2216C142.019 73.0926 142.164 72.8829 142.24 72.5926C142.315 72.3023 142.353 71.9099 142.353 71.4152V64.7056C142.353 64.3077 142.315 64.0174 142.24 63.8346C142.175 63.6518 142.035 63.5228 141.82 63.4475C141.605 63.3722 141.272 63.3292 140.82 63.3185V62.6894C141.057 62.7002 141.369 62.7109 141.756 62.7217C142.143 62.7324 142.562 62.7378 143.014 62.7378C143.616 62.7378 144.186 62.7324 144.724 62.7217C145.261 62.7109 145.75 62.7002 146.191 62.6894L149.191 70.0281L148.627 70.512L151.482 62.6894C151.944 62.7109 152.369 62.7271 152.756 62.7378C153.143 62.7378 153.546 62.7378 153.965 62.7378C154.525 62.7378 155.057 62.7324 155.562 62.7217C156.068 62.7109 156.471 62.7002 156.772 62.6894V63.3185C156.32 63.3292 155.987 63.3722 155.772 63.4475C155.557 63.512 155.412 63.641 155.336 63.8346C155.272 64.0174 155.24 64.3077 155.24 64.7056V72.0927C155.24 72.4797 155.277 72.77 155.353 72.9636C155.428 73.1464 155.573 73.2754 155.788 73.3507C156.003 73.4152 156.331 73.4582 156.772 73.4797V74.1087C156.428 74.0872 155.976 74.0765 155.417 74.0765C154.869 74.0657 154.272 74.0604 153.627 74.0604C152.928 74.0604 152.293 74.0657 151.724 74.0765C151.164 74.0765 150.724 74.0872 150.401 74.1087V73.4797C150.842 73.4582 151.175 73.4152 151.401 73.3507C151.627 73.2862 151.777 73.1571 151.853 72.9636C151.928 72.77 151.965 72.4797 151.965 72.0927V63.7217H151.772L147.965 74.2216H147.369ZM161.812 74.1087V73.4797C162.264 73.4582 162.597 73.4152 162.812 73.3507C163.028 73.2862 163.167 73.1571 163.232 72.9636C163.307 72.77 163.345 72.4797 163.345 72.0927V64.7056C163.345 64.3185 163.307 64.0335 163.232 63.8507C163.167 63.6572 163.022 63.5228 162.796 63.4475C162.581 63.3722 162.253 63.3292 161.812 63.3185V62.6894C162.404 62.7002 163.173 62.7109 164.119 62.7217C165.076 62.7324 166.189 62.7378 167.458 62.7378C168.017 62.7378 168.528 62.7378 168.99 62.7378C169.452 62.7271 169.872 62.7217 170.248 62.7217C170.624 62.7109 170.963 62.7002 171.264 62.6894C171.275 63.3561 171.302 64.012 171.345 64.6572C171.388 65.2916 171.452 65.926 171.538 66.5604H170.893C170.732 65.84 170.517 65.2432 170.248 64.7701C169.979 64.297 169.651 63.9475 169.264 63.7217C168.877 63.4851 168.431 63.3668 167.925 63.3668H166.619V72.4152C166.619 72.7055 166.64 72.9259 166.683 73.0765C166.726 73.2163 166.818 73.313 166.958 73.3668C167.097 73.4098 167.296 73.4313 167.554 73.4313H167.732C168.269 73.4313 168.775 73.2862 169.248 72.9958C169.721 72.7055 170.151 72.2755 170.538 71.7056C170.936 71.1249 171.28 70.4206 171.571 69.5927H172.232C172.157 70.4636 172.097 71.2701 172.054 72.012C172.022 72.7432 172.017 73.4421 172.038 74.1087C171.479 74.0872 170.818 74.0765 170.054 74.0765C169.291 74.0657 168.377 74.0604 167.312 74.0604C166.076 74.0604 164.99 74.0657 164.054 74.0765C163.13 74.0765 162.382 74.0872 161.812 74.1087ZM166.103 68.6733V68.0604H169.119V68.6733H166.103ZM169.167 70.8023C169.114 70.34 169.001 69.9529 168.829 69.641C168.657 69.3185 168.431 69.0765 168.151 68.9152C167.882 68.7539 167.554 68.6733 167.167 68.6733V68.0604C167.673 68.0604 168.097 67.8722 168.441 67.4959C168.796 67.1088 169.022 66.5873 169.119 65.9314H169.764C169.721 66.555 169.7 67.0443 169.7 67.3991C169.7 67.7432 169.7 68.0658 169.7 68.3669C169.7 68.5819 169.705 68.8023 169.716 69.0281C169.726 69.2432 169.737 69.4959 169.748 69.7862C169.769 70.0658 169.791 70.4045 169.812 70.8023H169.167ZM182.594 74.3345C181.938 74.3345 181.39 74.27 180.949 74.141C180.519 74.0227 180.164 73.9044 179.884 73.7862C179.616 73.6571 179.395 73.5926 179.223 73.5926C179.083 73.5926 178.97 73.6464 178.884 73.7539C178.809 73.8507 178.75 74.0173 178.707 74.2539H178.062C178.083 73.9528 178.094 73.6087 178.094 73.2216C178.105 72.8345 178.11 72.3453 178.11 71.7539C178.121 71.1626 178.126 70.4099 178.126 69.4959H178.772C178.944 70.8507 179.331 71.8776 179.933 72.5765C180.535 73.2647 181.341 73.6087 182.352 73.6087C182.965 73.6087 183.444 73.4743 183.788 73.2055C184.142 72.9259 184.32 72.5442 184.32 72.0604C184.32 71.7163 184.223 71.4099 184.03 71.141C183.836 70.8615 183.524 70.598 183.094 70.3507C182.675 70.1034 182.121 69.8453 181.433 69.5765C180.669 69.2862 180.046 68.9636 179.562 68.6088C179.089 68.2432 178.734 67.8346 178.497 67.383C178.272 66.9206 178.159 66.4045 178.159 65.8346C178.159 65.1464 178.32 64.555 178.642 64.0604C178.965 63.555 179.422 63.1625 180.013 62.883C180.616 62.6034 181.315 62.4636 182.11 62.4636C182.712 62.4636 183.207 62.5281 183.594 62.6572C183.992 62.7862 184.32 62.9152 184.578 63.0443C184.836 63.1625 185.051 63.2217 185.223 63.2217C185.363 63.2217 185.47 63.1733 185.546 63.0765C185.632 62.969 185.696 62.7916 185.739 62.5443H186.384C186.363 62.8023 186.341 63.0873 186.32 63.3991C186.309 63.7109 186.298 64.1195 186.288 64.6249C186.288 65.1195 186.288 65.7808 186.288 66.6088H185.642C185.492 65.555 185.116 64.7163 184.513 64.0927C183.922 63.469 183.207 63.1572 182.368 63.1572C181.852 63.1572 181.449 63.2862 181.159 63.5443C180.868 63.7916 180.723 64.141 180.723 64.5927C180.723 64.9152 180.809 65.2002 180.981 65.4475C181.153 65.6841 181.46 65.9206 181.901 66.1572C182.341 66.3937 182.944 66.6626 183.707 66.9636C184.847 67.4045 185.675 67.9367 186.191 68.5604C186.707 69.1733 186.965 69.9099 186.965 70.7701C186.965 71.8776 186.573 72.7485 185.788 73.3829C185.003 74.0173 183.938 74.3345 182.594 74.3345ZM193.73 74.1087V73.4797C194.343 73.4797 194.805 73.4475 195.117 73.3829C195.429 73.3077 195.639 73.1679 195.746 72.9636C195.854 72.7485 195.907 72.4206 195.907 71.9798V63.3668H195.778C195.284 63.3668 194.843 63.5013 194.456 63.7701C194.08 64.0389 193.746 64.4475 193.456 64.9959C193.176 65.5335 192.934 66.2163 192.73 67.0443H192.085C192.171 66.3346 192.235 65.6195 192.278 64.8991C192.321 64.1679 192.343 63.4314 192.343 62.6894C192.848 62.7002 193.407 62.7109 194.02 62.7217C194.644 62.7324 195.262 62.7378 195.875 62.7378C196.499 62.7378 197.058 62.7378 197.553 62.7378C198.047 62.7378 198.601 62.7378 199.214 62.7378C199.827 62.7378 200.44 62.7324 201.053 62.7217C201.676 62.7109 202.235 62.7002 202.73 62.6894C202.741 63.4421 202.768 64.1787 202.811 64.8991C202.854 65.6195 202.918 66.3346 203.004 67.0443H202.359C202.198 66.4206 202.015 65.883 201.811 65.4314C201.617 64.969 201.397 64.5873 201.149 64.2862C200.902 63.9744 200.623 63.7432 200.311 63.5927C200.01 63.4421 199.676 63.3668 199.311 63.3668H199.182V71.9798C199.182 72.4206 199.235 72.7485 199.343 72.9636C199.45 73.1679 199.66 73.3077 199.972 73.3829C200.284 73.4475 200.746 73.4797 201.359 73.4797V74.1087C200.95 74.098 200.402 74.0872 199.714 74.0765C199.037 74.0657 198.327 74.0604 197.585 74.0604C196.811 74.0604 196.08 74.0657 195.391 74.0765C194.703 74.0872 194.149 74.098 193.73 74.1087ZM206.555 74.1087V73.4797C206.92 73.4044 207.237 73.2754 207.506 73.0926C207.775 72.9098 208.028 72.6464 208.264 72.3023C208.501 71.9582 208.748 71.5013 209.006 70.9314L212.829 62.5765H213.41L218.168 71.9798C218.436 72.5066 218.711 72.8829 218.99 73.1087C219.27 73.3238 219.619 73.4475 220.039 73.4797V74.1087C219.651 74.0872 219.162 74.0765 218.571 74.0765C217.99 74.0657 217.318 74.0604 216.555 74.0604C215.727 74.0604 215.017 74.0657 214.426 74.0765C213.845 74.0765 213.404 74.0872 213.103 74.1087V73.4797C213.619 73.469 214.006 73.4098 214.264 73.3023C214.533 73.184 214.684 73.012 214.716 72.7862C214.759 72.5604 214.684 72.2701 214.49 71.9152L211.506 66.0281L211.99 65.8991L210.006 70.2378C209.694 70.926 209.528 71.5066 209.506 71.9798C209.496 72.4529 209.63 72.8184 209.91 73.0765C210.2 73.3238 210.641 73.4582 211.232 73.4797V74.1087C210.781 74.098 210.393 74.0926 210.071 74.0926C209.759 74.0819 209.479 74.0765 209.232 74.0765C208.985 74.0657 208.737 74.0604 208.49 74.0604C208.103 74.0604 207.754 74.0657 207.442 74.0765C207.13 74.0765 206.834 74.0872 206.555 74.1087ZM209.442 70.7539L209.716 70.1249H214.571L214.893 70.7539H209.442ZM222.736 77.9636V77.3345C223.338 77.2808 223.832 77.1249 224.22 76.8668C224.607 76.6195 224.892 76.2593 225.074 75.7862C225.268 75.313 225.365 74.727 225.365 74.0281V64.7056C225.365 64.3185 225.327 64.0335 225.252 63.8507C225.177 63.6572 225.015 63.5228 224.768 63.4475C224.531 63.3722 224.166 63.3292 223.671 63.3185V62.6894C224.252 62.7217 225.338 62.7378 226.929 62.7378C228.521 62.7378 229.601 62.7217 230.171 62.6894V63.3185C229.741 63.3292 229.413 63.3722 229.187 63.4475C228.972 63.512 228.827 63.641 228.752 63.8346C228.677 64.0281 228.639 64.3185 228.639 64.7056V72.5604C228.639 73.7969 228.429 74.813 228.01 75.6087C227.601 76.4152 226.961 77.0066 226.09 77.3829C225.22 77.77 224.101 77.9636 222.736 77.9636Z" fill="#F7F3EE"/>
</g>
<defs>
<clipPath id="clip0_30_2">
<rect width="152" height="2" fill="white" transform="translate(93 52.4636)"/>
</clipPath>
<clipPath id="clip1_30_2">
<rect width="6" height="4" fill="white" transform="translate(180 58.4636)"/>
</clipPath>
<clipPath id="clip2_30_2">
<rect width="81" height="31" fill="white"/>
</clipPath>
<clipPath id="clip3_30_2">
<rect width="20" height="38" fill="white" transform="translate(11 29)"/>
</clipPath>
<clipPath id="clip4_30_2">
<rect width="20" height="38" fill="white" transform="matrix(-1 0 0 1 70 29)"/>
</clipPath>
<clipPath id="clip5_30_2">
<rect width="124" height="16" fill="white" transform="translate(107 62.4636)"/>
</clipPath>
</defs>
</svg>
