<svg width="442" height="236" viewBox="0 0 442 236" fill="none" xmlns="http://www.w3.org/2000/svg">
<g clip-path="url(#clip0_54_197)">
<mask id="mask0_54_197" style="mask-type:luminance" maskUnits="userSpaceOnUse" x="0" y="0" width="442" height="236">
<path d="M442 0H0V236H442V0Z" fill="white"/>
</mask>
<g mask="url(#mask0_54_197)">
<mask id="mask1_54_197" style="mask-type:luminance" maskUnits="userSpaceOnUse" x="36" y="110" width="374" height="55">
<path d="M410 110H36V165H410V110Z" fill="#F7F3EE"/>
</mask>
<g mask="url(#mask1_54_197)">
<path d="M217.5 121.969L217.496 121.938C217.409 121.236 217.173 120.16 216.744 119.196C216.329 118.264 215.661 117.275 214.621 117.015L214.016 116.863L214 117.488L213 158.988L212.977 159.951L213.777 159.416C214.047 159.236 214.469 158.92 214.877 158.542C215.277 158.172 215.706 157.706 215.947 157.224C216.227 156.663 216.613 155.358 216.925 153.985C217.239 152.603 217.5 151.058 217.5 150V121.969ZM212.5 119.438L212.485 119.379C212.165 118.096 210.903 115.167 208.26 112.5H232.011C231.321 113.449 230.489 114.644 229.766 115.782C229.293 116.526 228.861 117.254 228.546 117.878C228.388 118.19 228.255 118.484 228.161 118.746C228.07 118.999 228 119.263 228 119.5V153.518L228.001 153.536C228.088 154.757 228.477 156.714 229.356 158.679C230.044 160.216 231.047 161.782 232.464 163H206.473C207.433 162.204 208.545 161.142 209.551 159.902C211.007 158.106 212.285 155.888 212.498 153.545L212.5 153.522V119.438Z" fill="#F7F3EE" stroke="black"/>
<path d="M257.077 118.05C258.493 120.297 260.64 123.769 262.482 126.876C263.404 128.43 264.248 129.89 264.885 131.059C265.203 131.643 265.468 132.151 265.664 132.559C265.866 132.979 265.978 133.259 266.015 133.404C266.058 133.576 266.158 133.829 266.287 134.122C266.421 134.427 266.6 134.81 266.817 135.257C267.252 136.152 267.845 137.317 268.541 138.654C269.934 141.33 271.748 144.709 273.562 148.023C275.375 151.338 277.189 154.591 278.582 157.017C279.278 158.229 279.871 159.238 280.307 159.945C280.524 160.298 280.706 160.582 280.844 160.781C280.912 160.879 280.977 160.967 281.034 161.034C281.062 161.066 281.099 161.108 281.142 161.145C281.163 161.163 281.197 161.19 281.242 161.215C281.28 161.236 281.373 161.283 281.5 161.283C281.626 161.283 281.75 161.236 281.846 161.147C281.93 161.07 281.967 160.983 281.983 160.933C282.014 160.839 282.011 160.757 282.01 160.73C282.007 160.662 281.993 160.594 281.982 160.548C281.959 160.444 281.917 160.306 281.865 160.146C281.759 159.819 281.59 159.349 281.367 158.759C280.92 157.576 280.248 155.891 279.407 153.872C277.725 149.834 275.361 144.45 272.763 139.065C270.166 133.684 267.327 128.287 264.692 124.229C263.376 122.203 262.1 120.491 260.919 119.281C260.329 118.676 259.75 118.184 259.19 117.84C258.634 117.498 258.063 117.283 257.5 117.283H256.594L257.077 118.05ZM253.5 123.483L253.499 123.467C253.412 122.161 252.999 120.03 252.047 117.815C251.256 115.975 250.082 114.055 248.393 112.5H269.219L287.073 141.761L287.104 141.812L287.146 141.854C287.514 142.22 288.148 142.695 288.85 142.84C289.212 142.914 289.616 142.904 290.003 142.72C290.392 142.534 290.709 142.199 290.947 141.724C291.737 140.144 301.563 123.146 306.411 114.786C306.735 114.384 307.257 113.794 307.788 113.306C308.06 113.056 308.324 112.842 308.556 112.695C308.805 112.537 308.949 112.5 309 112.5H330.12C330.162 112.679 330.199 112.881 330.214 113.075C330.226 113.243 330.222 113.387 330.201 113.496C330.18 113.609 330.149 113.644 330.146 113.646C330.12 113.673 330.032 113.742 329.853 113.869C329.683 113.99 329.474 114.132 329.222 114.309C328.726 114.655 328.102 115.102 327.49 115.617C326.881 116.13 326.269 116.723 325.806 117.363C325.346 117.999 325 118.727 325 119.5V157.133L325.066 157.248C325.684 158.329 327.522 160.767 330.442 163H303.02C305.063 161.149 307.668 157.152 307.999 150.525C308.399 142.529 309.166 129.864 309.499 124.531L309.498 124.53C309.541 123.964 309.539 123.318 309.445 122.732C309.355 122.168 309.166 121.554 308.753 121.171C308.532 120.966 308.253 120.833 307.923 120.812C307.603 120.793 307.273 120.881 306.941 121.049C306.29 121.379 305.526 122.068 304.613 123.184L304.586 123.217L304.564 123.254L281.298 164.341C280.076 163.668 277.833 161.893 276.457 158.797C274.849 155.178 263.783 134.279 258.452 124.284C258.404 124.149 258.341 124 258.259 123.863C258.175 123.723 258.03 123.522 257.807 123.413C257.682 123.353 257.528 123.318 257.358 123.349C257.192 123.379 257.058 123.465 256.956 123.562C256.766 123.744 256.632 124.021 256.525 124.342C256.481 124.474 256.456 124.659 256.436 124.847C256.414 125.049 256.395 125.303 256.379 125.6C256.347 126.194 256.324 126.982 256.308 127.912C256.276 129.773 256.273 132.224 256.288 134.89C256.317 140.222 256.417 146.425 256.5 150.51V150.521L256.501 150.533C256.666 152.998 258.425 158.608 263.982 163H244.428C246.011 161.668 247.964 159.749 249.649 157.514C251.757 154.719 253.5 151.362 253.5 148V123.483Z" fill="#F7F3EE" stroke="black"/>
<path d="M75 110.5C85.6788 110.5 95.3259 113.552 102.289 118.464C109.254 123.375 113.5 130.112 113.5 137.5C113.5 144.887 109.254 151.625 102.289 156.536C95.326 161.447 85.6787 164.5 75 164.5C64.3213 164.5 54.6745 161.447 47.7109 156.536C40.7459 151.625 36.5 144.887 36.5 137.5C36.5 130.112 40.7459 123.375 47.7109 118.464L47.71 118.463L48.3721 118.009C55.2793 113.364 64.6556 110.5 75 110.5ZM75 113C63.8716 113 55 123.836 55 137C55 150.164 63.8716 161 75 161C86.1285 161 95 150.164 95 137C95 123.836 86.1285 113 75 113ZM50.9443 120.591C47.4081 123.009 43.1325 127.507 41.8896 133.159C40.6335 138.872 42.5048 145.616 50.9854 152.403L51.6201 151.631C45.0632 146.094 43.7154 139.927 44.6484 134.46C45.5884 128.953 48.8532 124.117 51.582 121.355L50.9443 120.591Z" fill="#F7F3EE" stroke="black"/>
<path d="M157.053 112.5L157.091 112.656C156.107 113.189 154.754 114.114 153.519 115.363C152.125 116.773 150.877 118.599 150.479 120.743C150.279 121.815 150.158 123.881 150.095 126.523C150.032 129.167 150.026 132.389 150.055 135.776C150.112 142.536 150.31 149.95 150.477 154.73L150.478 154.766L150.483 154.801C150.737 156.219 151.874 158.094 154.446 159.263L154.7 159.374C157.473 160.539 161.826 160.904 168.393 159.155C181.528 155.656 189.789 148.951 192.28 146.033H194.264L187.308 163.5H124.553L124.543 163.414C126.985 162.677 131.319 159.662 132.069 152.339C132.865 144.571 132.732 129.047 132.566 122.23V122.207L132.563 122.184C132.388 120.707 130.957 116.749 126.616 112.5H157.053ZM135.547 119.246C135.449 125.311 135.331 134.338 135.297 141.706C135.28 145.389 135.283 148.662 135.32 150.942C135.339 152.08 135.367 152.98 135.405 153.562C135.424 153.846 135.446 154.083 135.478 154.236C135.486 154.276 135.497 154.325 135.515 154.373C135.524 154.4 135.564 154.515 135.669 154.61C135.732 154.668 135.846 154.742 136.005 154.745C136.163 154.748 136.279 154.679 136.345 154.625C136.399 154.58 136.438 154.529 136.464 154.486L136.51 154.395C137.037 153.103 137.335 152.183 137.797 150.037L138.006 149.038C138.129 148.436 138.199 147.259 138.237 145.78C138.276 144.284 138.284 142.431 138.273 140.447C138.253 136.479 138.159 131.969 138.091 128.702C138.049 126.709 138.016 125.185 138.016 124.521C138.016 122.15 137.413 120.225 137.089 119.522L137.04 119.417L136.95 119.344L136.362 118.866L135.563 118.217L135.547 119.246Z" fill="#F7F3EE" stroke="black"/>
<path d="M346.791 112.854C354.593 112.612 365.899 112.408 375.987 112.544C381.316 112.616 386.298 112.781 390.242 113.084C392.215 113.236 393.921 113.422 395.277 113.646C396.651 113.872 397.611 114.129 398.133 114.401L398.169 114.421L398.209 114.434C406.077 117.001 408.878 120.92 409.403 124.512C409.903 127.935 408.366 131.224 406.797 133.058L406.482 133.404C405.842 134.072 404.877 134.699 403.7 135.271C402.529 135.841 401.176 136.343 399.787 136.774C397.016 137.635 394.135 138.201 392.326 138.46L370.91 140.021C369.483 140.03 368.597 140.881 368.094 141.854C367.598 142.814 367.44 143.939 367.439 144.687V156.146C367.439 160.232 369.952 163.025 372.055 164.5H344.837C349.253 161.595 350.483 157.893 350.483 156.146V118.124C350.483 117.574 350.243 116.99 349.924 116.444C349.598 115.887 349.155 115.311 348.676 114.762C348.074 114.072 347.399 113.407 346.791 112.854ZM354.162 148.895C354.162 152.604 353.532 158.368 353.216 160.792L353.187 161.022L353.343 161.194C353.418 161.277 353.531 161.364 353.684 161.402C353.843 161.442 353.992 161.414 354.111 161.358C354.317 161.263 354.451 161.079 354.532 160.948C354.711 160.661 354.878 160.222 355.035 159.723C355.355 158.704 355.687 157.252 355.984 155.753C356.283 154.25 356.551 152.682 356.745 151.425C356.842 150.796 356.921 150.244 356.976 149.813C357.028 149.397 357.063 149.062 357.063 148.895C357.064 147.878 357.38 128.6 357.062 123.899C356.932 121.984 356.579 120.586 356.178 119.608C355.785 118.652 355.324 118.048 354.937 117.794L354.162 117.286V148.895ZM372.467 115.721C372.004 115.647 371.319 115.624 370.716 115.821C370.397 115.926 370.072 116.101 369.826 116.39C369.573 116.687 369.434 117.07 369.434 117.525V132.8L369.447 132.855C369.547 133.286 369.805 133.909 370.273 134.435C370.752 134.971 371.463 135.417 372.434 135.417C373.436 135.417 376.704 135.417 380.289 135.089C382.081 134.925 383.961 134.677 385.683 134.305C387.397 133.934 388.987 133.431 390.178 132.74C392.179 131.58 393.007 129.356 393.272 127.184C393.539 124.998 393.256 122.741 392.912 121.32L392.896 121.251L392.859 121.188L392.745 121.002C391.462 119.029 387.065 115.721 378.431 115.721H372.467Z" fill="#F7F3EE" stroke="black"/>
</g>
<mask id="mask2_54_197" style="mask-type:luminance" maskUnits="userSpaceOnUse" x="0" y="0" width="439" height="96">
<path d="M439 0H0V96H439V0Z" fill="white"/>
</mask>
<g mask="url(#mask2_54_197)">
<path d="M57.3302 88.2589H50.2622V81.0367H102.262V88.2589H94.6894M57.3302 88.2589V94.0367H94.6894V88.2589" fill="#C6AC8F"/>
<path d="M57.3302 88.2589H50.2622V81.0367H102.262V88.2589H94.6894M57.3302 88.2589V94.0367H94.6894V88.2589" fill="#EAE0D5"/>
<path d="M57.3302 88.2589H50.2622V81.0367H102.262V88.2589H94.6894M57.3302 88.2589V94.0367H94.6894V88.2589M57.3302 88.2589H94.6894Z" fill="#F7F3EE"/>
<path d="M57.3302 88.2589H50.2622V81.0367H102.262V88.2589H94.6894M57.3302 88.2589V94.0367H94.6894V88.2589M57.3302 88.2589H94.6894" stroke="black" stroke-width="2"/>
<mask id="mask3_54_197" style="mask-type:luminance" maskUnits="userSpaceOnUse" x="123" y="80" width="55" height="16">
<path d="M177.262 80.0367H123.262V95.0367H177.262V80.0367Z" fill="#F7F3EE"/>
</mask>
<g mask="url(#mask3_54_197)">
<path d="M131.33 88.2589H124.262V81.0367H176.262V88.2589H168.69M131.33 88.2589V94.0367H168.69V88.2589" fill="#F7F3EE"/>
<path d="M131.33 88.2589H124.262V81.0367H176.262V88.2589H168.69M131.33 88.2589V94.0367H168.69V88.2589" fill="#F7F3EE"/>
<path d="M131.33 88.2589H124.262V81.0367H176.262V88.2589H168.69M131.33 88.2589V94.0367H168.69V88.2589M131.33 88.2589H168.69Z" fill="#F7F3EE"/>
<path d="M131.33 88.2589H124.262V81.0367H176.262V88.2589H168.69M131.33 88.2589V94.0367H168.69V88.2589M131.33 88.2589H168.69" stroke="black" stroke-width="2"/>
</g>
<mask id="mask4_54_197" style="mask-type:luminance" maskUnits="userSpaceOnUse" x="196" y="80" width="55" height="16">
<path d="M250.262 80.0367H196.262V95.0367H250.262V80.0367Z" fill="#F7F3EE"/>
</mask>
<g mask="url(#mask4_54_197)">
<path d="M204.33 88.2589H197.262V81.0367H249.262V88.2589H241.69M204.33 88.2589V94.0367H241.69V88.2589" fill="#F7F3EE"/>
<path d="M204.33 88.2589H197.262V81.0367H249.262V88.2589H241.69M204.33 88.2589V94.0367H241.69V88.2589" fill="#F7F3EE"/>
<path d="M204.33 88.2589H197.262V81.0367H249.262V88.2589H241.69M204.33 88.2589V94.0367H241.69V88.2589M204.33 88.2589H241.69Z" fill="#F7F3EE"/>
<path d="M204.33 88.2589H197.262V81.0367H249.262V88.2589H241.69M204.33 88.2589V94.0367H241.69V88.2589M204.33 88.2589H241.69" stroke="black" stroke-width="2"/>
</g>
<mask id="mask5_54_197" style="mask-type:luminance" maskUnits="userSpaceOnUse" x="269" y="80" width="55" height="16">
<path d="M323.262 80.0367H269.262V95.0367H323.262V80.0367Z" fill="#F7F3EE"/>
</mask>
<g mask="url(#mask5_54_197)">
<path d="M277.33 88.2589H270.262V81.0367H322.262V88.2589H314.69M277.33 88.2589V94.0367H314.69V88.2589" fill="#F7F3EE"/>
<path d="M277.33 88.2589H270.262V81.0367H322.262V88.2589H314.69M277.33 88.2589V94.0367H314.69V88.2589" fill="#F7F3EE"/>
<path d="M277.33 88.2589H270.262V81.0367H322.262V88.2589H314.69M277.33 88.2589V94.0367H314.69V88.2589M277.33 88.2589H314.69Z" fill="#F7F3EE"/>
<path d="M277.33 88.2589H270.262V81.0367H322.262V88.2589H314.69M277.33 88.2589V94.0367H314.69V88.2589M277.33 88.2589H314.69" stroke="black" stroke-width="2"/>
</g>
<mask id="mask6_54_197" style="mask-type:luminance" maskUnits="userSpaceOnUse" x="343" y="80" width="55" height="16">
<path d="M397.262 80.0367H343.262V95.0367H397.262V80.0367Z" fill="#F7F3EE"/>
</mask>
<g mask="url(#mask6_54_197)">
<path d="M351.33 88.2589H344.262V81.0367H396.262V88.2589H388.69M351.33 88.2589V94.0367H388.69V88.2589" fill="#F7F3EE"/>
<path d="M351.33 88.2589H344.262V81.0367H396.262V88.2589H388.69M351.33 88.2589V94.0367H388.69V88.2589" fill="#F7F3EE"/>
<path d="M351.33 88.2589H344.262V81.0367H396.262V88.2589H388.69M351.33 88.2589V94.0367H388.69V88.2589M351.33 88.2589H388.69Z" fill="#F7F3EE"/>
<path d="M351.33 88.2589H344.262V81.0367H396.262V88.2589H388.69M351.33 88.2589V94.0367H388.69V88.2589M351.33 88.2589H388.69" stroke="black" stroke-width="2"/>
</g>
<path d="M220.534 1.03674L0.262207 60.9169H438.262L220.534 1.03674Z" fill="#F7F3EE" stroke="black" stroke-width="2"/>
<path d="M25.698 81.0365V68.1024H426.562V81.0365H25.698Z" fill="#F7F3EE" stroke="black" stroke-width="2"/>
<path d="M185.261 22.0367C185.967 22.0367 186.913 22.0605 188.1 22.1082C189.288 22.1558 190.523 22.2272 191.807 22.3224C193.09 22.3939 194.213 22.4772 195.176 22.5725C196.139 22.6439 196.765 22.7272 197.053 22.8224L196.091 28.2153H195.609C195.609 26.9057 194.919 25.8462 193.539 25.0368C192.192 24.2272 190.331 23.8224 187.956 23.8224C185.999 23.8224 184.443 24.1081 183.288 24.6796C182.133 25.2272 181.507 25.9415 181.41 26.8224C181.315 27.6795 181.699 28.3463 182.566 28.8225C183.464 29.2986 184.507 29.7391 185.694 30.1438L194.695 33.251C196.492 33.8462 197.903 34.7152 198.93 35.8582C199.957 37.001 200.39 38.4414 200.229 40.1796C200.005 42.7271 198.561 44.6795 195.898 46.0367C193.267 47.3701 189.673 48.0367 185.117 48.0367C183.256 48.0367 181.571 47.9295 180.063 47.7152C178.555 47.501 177.255 47.2271 176.165 46.8939C175.105 46.5367 174.287 46.1438 173.71 45.7153C173.357 45.12 173.212 44.3938 173.277 43.5367C173.341 42.6796 173.55 41.8344 173.902 41.001C174.287 40.1439 174.737 39.4653 175.25 38.9653H175.683C175.587 40.2034 175.939 41.3819 176.742 42.501C177.544 43.62 178.747 44.5248 180.352 45.2153C181.956 45.9058 183.881 46.251 186.127 46.251C188.438 46.251 190.138 45.8939 191.229 45.1795C192.352 44.4653 192.914 43.6558 192.914 42.751C192.914 41.9891 192.513 41.2986 191.71 40.6795C190.941 40.0605 189.641 39.4415 187.812 38.8224L179.967 36.1081C177.753 35.3462 176.132 34.2986 175.105 32.9653C174.111 31.632 173.758 30.1201 174.047 28.4296C174.271 27.0486 174.864 25.882 175.827 24.9296C176.79 23.9772 178.058 23.2629 179.63 22.7868C181.234 22.2867 183.111 22.0367 185.261 22.0367ZM197.149 22.3939L197.005 23.1439H190.026V22.3939H197.149Z" fill="black"/>
<path d="M231.167 22.2175C231.167 22.2175 231.167 22.2778 231.167 22.3983C231.167 22.4947 231.167 22.543 231.167 22.543L213.976 48.0367H203.262V47.7112L219.071 24.4957H203.929V22.6877H226.119C226.754 22.6877 227.42 22.6635 228.119 22.6153C228.849 22.5671 229.484 22.5068 230.024 22.4345C230.595 22.3622 230.976 22.2899 231.167 22.2175ZM230.071 46.2286L229.786 48.0367H206.787V46.2286H230.071ZM232.262 39.6473L230.452 48.0367H220.167L220.977 46.6988L221.881 46.2286C224.166 46.2286 226.198 45.65 227.976 44.4929C229.786 43.3358 231.055 41.7205 231.786 39.6473H232.262ZM210.548 24.4957C208.611 24.5198 207.103 24.9538 206.024 25.7975C204.944 26.6172 204.405 27.7502 204.405 29.1967V29.486H203.929V24.3872H210.548V24.4957ZM203.929 22.0367C204.246 22.1331 204.723 22.2296 205.358 22.326C206.024 22.4224 206.754 22.5068 207.548 22.5792C208.342 22.6515 209.072 22.6877 209.738 22.6877L203.929 23.0853V22.0367Z" fill="black"/>
<path d="M247.789 23.0367H253.404C254.796 23.0367 256.219 23.1319 257.673 23.3224C259.126 23.5129 260.457 23.8582 261.663 24.3582C262.869 24.8344 263.844 25.5129 264.586 26.3939C265.328 27.2748 265.699 28.4057 265.699 29.7867C265.699 30.6915 265.483 31.6319 265.05 32.6081C264.617 33.5605 263.859 34.4058 262.776 35.1438C261.724 35.8582 260.225 36.3343 258.276 36.5725C259.575 36.8582 260.704 37.3463 261.663 38.0368C262.622 38.7272 263.379 39.4295 263.937 40.1439C263.998 40.2153 264.153 40.4177 264.4 40.751C264.648 41.0843 264.957 41.501 265.328 42.001C265.731 42.4772 266.148 42.9772 266.581 43.501C267.014 44.0248 267.447 44.5129 267.88 44.9653C268.592 45.7034 269.21 46.2629 269.736 46.6438C270.262 47.0249 270.788 47.2867 271.313 47.4295C271.871 47.5724 272.52 47.6558 273.262 47.6796V48.0367H267.462C265.607 48.0367 263.89 47.9534 262.312 47.7867C260.735 47.62 259.312 47.251 258.044 46.6796C256.806 46.1082 255.708 45.2034 254.749 43.9653C254.409 43.5367 254.131 43.1082 253.914 42.6796C253.698 42.251 253.512 41.8344 253.357 41.4296C253.203 41.0248 253.063 40.6439 252.94 40.2868C252.847 39.9057 252.754 39.5486 252.662 39.2153C252.569 38.8581 252.46 38.5249 252.337 38.2153C252.027 37.3582 251.656 36.7748 251.223 36.4653C250.79 36.1558 250.357 35.9415 249.924 35.8224V35.4653C250.048 35.4653 250.187 35.4653 250.341 35.4653C250.496 35.4653 250.605 35.4653 250.666 35.4653C251.532 35.4653 252.306 35.3105 252.986 35.001C253.666 34.6915 254.239 34.2153 254.703 33.5724C255.167 32.9296 255.476 32.0962 255.631 31.0724C255.662 30.882 255.693 30.6796 255.724 30.4653C255.755 30.2272 255.755 29.9414 255.724 29.6082C255.6 27.8462 255.028 26.62 254.007 25.9296C253.017 25.2391 251.827 24.8938 250.434 24.8938C250.28 24.8938 250.078 24.8938 249.831 24.8938C249.584 24.8938 249.321 24.8938 249.042 24.8938C248.764 24.8938 248.501 24.8938 248.254 24.8938C248.254 24.8938 248.207 24.7391 248.115 24.4296C248.052 24.12 247.975 23.8105 247.883 23.501C247.82 23.1915 247.789 23.0367 247.789 23.0367ZM248.392 23.0367V48.0367H238.835V23.0367H248.392ZM238.974 45.4296V48.0367H235.262V47.6796C235.324 47.6796 235.433 47.6796 235.587 47.6796C235.742 47.6796 235.834 47.6796 235.865 47.6796C236.669 47.6796 237.35 47.4653 237.907 47.0367C238.495 46.5843 238.804 46.0487 238.835 45.4296H238.974ZM238.974 25.6438H238.835C238.804 25.0248 238.495 24.501 237.907 24.0725C237.35 23.62 236.669 23.3938 235.865 23.3938C235.834 23.3938 235.742 23.3938 235.587 23.3938C235.433 23.3938 235.324 23.3938 235.262 23.3938V23.0367H238.974V25.6438ZM248.254 45.4296H248.392C248.392 46.0487 248.687 46.5843 249.274 47.0367C249.862 47.4653 250.558 47.6796 251.363 47.6796C251.424 47.6796 251.517 47.6796 251.64 47.6796C251.795 47.6796 251.888 47.6796 251.919 47.6796V48.0367H248.254V45.4296Z" fill="black"/>
</g>
</g>
<path d="M22.9803 211.745H6V226C173.926 222.157 268.075 224.716 436 226V211.236H418.521V198H22.9803" fill="#F7F3EE"/>
<path d="M22.9803 211.745H6V226C173.926 222.157 268.075 224.716 436 226V211.236H418.521V198H22.9803" stroke="black" stroke-width="2"/>
<mask id="mask7_54_197" style="mask-type:luminance" maskUnits="userSpaceOnUse" x="46" y="184" width="348" height="15">
<path d="M394 199H46V184H394V199Z" fill="#EAE0D5"/>
</mask>
<g mask="url(#mask7_54_197)">
<path d="M54.068 190.777H47V198H98.9997V190.777H91.4272M54.068 190.777V185H91.4272V190.777" fill="#F7F3EE"/>
<path d="M54.068 190.777H47V198H98.9997V190.777H91.4272M54.068 190.777V185H91.4272V190.777M54.068 190.777H91.4272Z" fill="#F7F3EE"/>
<path d="M54.068 190.777H47V198H98.9997V190.777H91.4272M54.068 190.777V185H91.4272V190.777M54.068 190.777H91.4272" stroke="black" stroke-width="2"/>
<mask id="mask8_54_197" style="mask-type:luminance" maskUnits="userSpaceOnUse" x="120" y="184" width="54" height="15">
<path d="M174 199H120V184H174V199Z" fill="#F7F3EE"/>
</mask>
<g mask="url(#mask8_54_197)">
<path d="M128.068 190.777H121V198H173V190.777H165.427M128.068 190.777V185H165.427V190.777" fill="#F7F3EE"/>
<path d="M128.068 190.777H121V198H173V190.777H165.427M128.068 190.777V185H165.427V190.777M128.068 190.777H165.427Z" fill="#F7F3EE"/>
<path d="M128.068 190.777H121V198H173V190.777H165.427M128.068 190.777V185H165.427V190.777M128.068 190.777H165.427" stroke="black" stroke-width="2"/>
</g>
<mask id="mask9_54_197" style="mask-type:luminance" maskUnits="userSpaceOnUse" x="193" y="184" width="54" height="15">
<path d="M247 199H193V184H247V199Z" fill="#F7F3EE"/>
</mask>
<g mask="url(#mask9_54_197)">
<path d="M201.068 190.777H194V198H246V190.777H238.427M201.068 190.777V185H238.427V190.777" fill="#F7F3EE"/>
<path d="M201.068 190.777H194V198H246V190.777H238.427M201.068 190.777V185H238.427V190.777M201.068 190.777H238.427Z" fill="#F7F3EE"/>
<path d="M201.068 190.777H194V198H246V190.777H238.427M201.068 190.777V185H238.427V190.777M201.068 190.777H238.427" stroke="black" stroke-width="2"/>
</g>
<mask id="mask10_54_197" style="mask-type:luminance" maskUnits="userSpaceOnUse" x="266" y="184" width="54" height="15">
<path d="M320 199H266V184H320V199Z" fill="#F7F3EE"/>
</mask>
<g mask="url(#mask10_54_197)">
<path d="M274.068 190.777H267V198H319V190.777H311.427M274.068 190.777V185H311.427V190.777" fill="#F7F3EE"/>
<path d="M274.068 190.777H267V198H319V190.777H311.427M274.068 190.777V185H311.427V190.777M274.068 190.777H311.427Z" fill="#F7F3EE"/>
<path d="M274.068 190.777H267V198H319V190.777H311.427M274.068 190.777V185H311.427V190.777M274.068 190.777H311.427" stroke="black" stroke-width="2"/>
</g>
<mask id="mask11_54_197" style="mask-type:luminance" maskUnits="userSpaceOnUse" x="340" y="184" width="54" height="15">
<path d="M394 199H340V184H394V199Z" fill="#F7F3EE"/>
</mask>
<g mask="url(#mask11_54_197)">
<path d="M348.068 190.777H341V198H393V190.777H385.427M348.068 190.777V185H385.427V190.777" fill="#F7F3EE"/>
<path d="M348.068 190.777H341V198H393V190.777H385.427M348.068 190.777V185H385.427V190.777M348.068 190.777H385.427Z" fill="#F7F3EE"/>
<path d="M348.068 190.777H341V198H393V190.777H385.427M348.068 190.777V185H385.427V190.777M348.068 190.777H385.427" stroke="black" stroke-width="2"/>
</g>
</g>
<path d="M22 212L23 198H26" stroke="black" stroke-width="2"/>
<path d="M57.4838 218.113L49.887 208.419H49.6935V215.161C49.6935 215.72 49.7311 216.156 49.8064 216.467C49.8816 216.769 50.0483 216.984 50.3064 217.113C50.5752 217.242 50.9892 217.328 51.5483 217.371V218C51.3333 217.978 51.0322 217.967 50.6451 217.967C50.258 217.957 49.8601 217.951 49.4515 217.951C49.0537 217.951 48.6827 217.957 48.3386 217.967C48.0053 217.967 47.7311 217.978 47.5161 218V217.371C47.9569 217.328 48.2849 217.242 48.4999 217.113C48.715 216.984 48.8601 216.774 48.9354 216.484C49.0107 216.193 49.0483 215.801 49.0483 215.306V208.596C49.0483 208.199 49.0107 207.908 48.9354 207.726C48.8709 207.543 48.7311 207.414 48.5161 207.338C48.301 207.263 47.9677 207.22 47.5161 207.209V206.58C47.7526 206.591 48.0698 206.602 48.4677 206.613C48.8763 206.623 49.3064 206.629 49.758 206.629C50.2849 206.629 50.7741 206.623 51.2257 206.613C51.6773 206.602 52.0913 206.591 52.4677 206.58L57.2903 212.693H57.4838V209.419C57.4838 208.86 57.4462 208.43 57.3709 208.129C57.2956 207.817 57.1236 207.596 56.8548 207.467C56.5967 207.328 56.1881 207.242 55.629 207.209V206.58C55.844 206.591 56.1451 206.602 56.5322 206.613C56.9193 206.623 57.3118 206.629 57.7096 206.629C58.1075 206.629 58.4784 206.623 58.8225 206.613C59.1773 206.602 59.4569 206.591 59.6612 206.58V207.209C59.2204 207.242 58.8924 207.328 58.6773 207.467C58.4623 207.596 58.3171 207.806 58.2419 208.096C58.1666 208.376 58.129 208.769 58.129 209.274V218.113H57.4838ZM95.4379 218V217.371C95.8035 217.295 96.1207 217.166 96.3895 216.984C96.6584 216.801 96.9111 216.537 97.1476 216.193C97.3842 215.849 97.6315 215.392 97.8897 214.822L101.713 206.467H102.293L107.051 215.871C107.32 216.398 107.594 216.774 107.874 217C108.153 217.215 108.503 217.338 108.922 217.371V218C108.535 217.978 108.046 217.967 107.454 217.967C106.874 217.957 106.202 217.951 105.438 217.951C104.61 217.951 103.901 217.957 103.309 217.967C102.729 217.967 102.288 217.978 101.987 218V217.371C102.503 217.36 102.89 217.301 103.148 217.193C103.417 217.075 103.567 216.903 103.6 216.677C103.643 216.451 103.567 216.161 103.374 215.806L100.39 209.919L100.874 209.79L98.8897 214.129C98.5777 214.817 98.4107 215.398 98.3897 215.871C98.3787 216.344 98.5137 216.709 98.7927 216.967C99.0827 217.215 99.5237 217.349 100.116 217.371V218C99.6637 217.989 99.2767 217.984 98.9537 217.984C98.6427 217.973 98.3627 217.967 98.1157 217.967C97.8677 217.957 97.6207 217.951 97.3734 217.951C96.9863 217.951 96.6369 217.957 96.325 217.967C96.0132 217.967 95.7175 217.978 95.4379 218ZM98.3247 214.645L98.5997 214.016H103.454L103.777 214.645H98.3247ZM151.885 218.113L147.708 207.887H147.514V215.161C147.514 215.72 147.552 216.156 147.627 216.467C147.702 216.769 147.869 216.984 148.127 217.113C148.396 217.242 148.81 217.328 149.369 217.371V218C149.143 217.978 148.831 217.967 148.434 217.967C148.036 217.957 147.632 217.951 147.224 217.951C146.848 217.951 146.487 217.957 146.143 217.967C145.81 217.967 145.541 217.978 145.337 218V217.371C145.778 217.328 146.106 217.242 146.321 217.113C146.536 216.984 146.681 216.774 146.756 216.484C146.831 216.193 146.869 215.801 146.869 215.306V208.596C146.869 208.199 146.831 207.908 146.756 207.726C146.692 207.543 146.552 207.414 146.337 207.338C146.122 207.263 145.788 207.22 145.337 207.209V206.58C145.573 206.591 145.885 206.602 146.272 206.613C146.659 206.623 147.079 206.629 147.53 206.629C148.132 206.629 148.702 206.623 149.24 206.613C149.778 206.602 150.267 206.591 150.708 206.58L153.708 213.919L153.143 214.403L155.998 206.58C156.46 206.602 156.885 206.618 157.272 206.629C157.659 206.629 158.063 206.629 158.482 206.629C159.041 206.629 159.573 206.623 160.079 206.613C160.584 206.602 160.987 206.591 161.288 206.58V207.209C160.837 207.22 160.503 207.263 160.288 207.338C160.073 207.403 159.928 207.532 159.853 207.726C159.788 207.908 159.756 208.199 159.756 208.596V215.984C159.756 216.371 159.794 216.661 159.869 216.855C159.944 217.037 160.089 217.166 160.305 217.242C160.52 217.306 160.848 217.349 161.288 217.371V218C160.944 217.978 160.493 217.967 159.934 217.967C159.385 217.957 158.788 217.951 158.143 217.951C157.444 217.951 156.81 217.957 156.24 217.967C155.681 217.967 155.24 217.978 154.917 218V217.371C155.358 217.349 155.692 217.306 155.917 217.242C156.143 217.177 156.294 217.048 156.369 216.855C156.444 216.661 156.482 216.371 156.482 215.984V207.613H156.288L152.482 218.113H151.885ZM198.329 218V217.371C198.781 217.349 199.114 217.306 199.329 217.242C199.544 217.177 199.684 217.048 199.748 216.855C199.824 216.661 199.861 216.371 199.861 215.984V208.596C199.861 208.209 199.824 207.924 199.748 207.742C199.684 207.548 199.539 207.414 199.313 207.338C199.098 207.263 198.77 207.22 198.329 207.209V206.58C198.92 206.591 199.689 206.602 200.635 206.613C201.592 206.623 202.705 206.629 203.974 206.629C204.533 206.629 205.044 206.629 205.506 206.629C205.969 206.618 206.388 206.613 206.764 206.613C207.141 206.602 207.479 206.591 207.781 206.58C207.791 207.247 207.818 207.903 207.861 208.548C207.904 209.183 207.969 209.817 208.055 210.451H207.41C207.248 209.731 207.033 209.134 206.764 208.661C206.496 208.188 206.168 207.838 205.781 207.613C205.393 207.376 204.947 207.258 204.442 207.258H203.135V216.306C203.135 216.596 203.157 216.817 203.2 216.967C203.243 217.107 203.334 217.204 203.474 217.258C203.614 217.301 203.813 217.322 204.071 217.322H204.248C204.786 217.322 205.291 217.177 205.764 216.887C206.238 216.596 206.668 216.166 207.055 215.596C207.453 215.016 207.797 214.312 208.087 213.484H208.748C208.673 214.355 208.614 215.161 208.571 215.903C208.539 216.634 208.533 217.333 208.555 218C207.996 217.978 207.334 217.967 206.571 217.967C205.807 217.957 204.893 217.951 203.829 217.951C202.592 217.951 201.506 217.957 200.571 217.967C199.646 217.967 198.899 217.978 198.329 218ZM202.619 212.564V211.951H205.635V212.564H202.619ZM205.684 214.693C205.63 214.231 205.517 213.844 205.345 213.532C205.173 213.209 204.947 212.967 204.668 212.806C204.399 212.645 204.071 212.564 203.684 212.564V211.951C204.189 211.951 204.614 211.763 204.958 211.387C205.313 211 205.539 210.478 205.635 209.822H206.281C206.238 210.446 206.216 210.935 206.216 211.29C206.216 211.634 206.216 211.957 206.216 212.258C206.216 212.473 206.221 212.693 206.232 212.919C206.243 213.134 206.254 213.387 206.264 213.677C206.286 213.957 206.307 214.295 206.329 214.693H205.684ZM251.111 218.226C250.455 218.226 249.906 218.161 249.465 218.032C249.035 217.914 248.68 217.795 248.401 217.677C248.132 217.548 247.912 217.484 247.74 217.484C247.6 217.484 247.487 217.537 247.401 217.645C247.326 217.742 247.267 217.908 247.223 218.145H246.578C246.6 217.844 246.611 217.5 246.611 217.113C246.621 216.726 246.627 216.236 246.627 215.645C246.637 215.053 246.643 214.301 246.643 213.387H247.288C247.46 214.742 247.847 215.769 248.449 216.467C249.051 217.156 249.858 217.5 250.869 217.5C251.482 217.5 251.96 217.365 252.304 217.096C252.659 216.817 252.836 216.435 252.836 215.951C252.836 215.607 252.74 215.301 252.546 215.032C252.353 214.752 252.041 214.489 251.611 214.242C251.191 213.994 250.637 213.736 249.949 213.467C249.186 213.177 248.562 212.855 248.078 212.5C247.605 212.134 247.25 211.726 247.014 211.274C246.788 210.812 246.675 210.295 246.675 209.726C246.675 209.037 246.836 208.446 247.159 207.951C247.482 207.446 247.939 207.053 248.53 206.774C249.132 206.494 249.831 206.355 250.627 206.355C251.229 206.355 251.723 206.419 252.111 206.548C252.508 206.677 252.836 206.806 253.094 206.935C253.353 207.053 253.568 207.113 253.74 207.113C253.879 207.113 253.987 207.064 254.062 206.967C254.148 206.86 254.213 206.683 254.256 206.435H254.901C254.879 206.693 254.858 206.978 254.836 207.29C254.826 207.602 254.815 208.01 254.804 208.516C254.804 209.01 254.804 209.672 254.804 210.5H254.159C254.008 209.446 253.632 208.607 253.03 207.984C252.439 207.36 251.723 207.048 250.885 207.048C250.369 207.048 249.965 207.177 249.675 207.435C249.385 207.683 249.24 208.032 249.24 208.484C249.24 208.806 249.326 209.091 249.498 209.338C249.67 209.575 249.976 209.812 250.417 210.048C250.858 210.285 251.46 210.553 252.223 210.855C253.363 211.295 254.191 211.828 254.707 212.451C255.223 213.064 255.482 213.801 255.482 214.661C255.482 215.769 255.089 216.639 254.304 217.274C253.519 217.908 252.455 218.226 251.111 218.226ZM294.247 218V217.371C294.859 217.371 295.322 217.338 295.634 217.274C295.945 217.199 296.155 217.059 296.263 216.855C296.37 216.639 296.424 216.312 296.424 215.871V207.258H296.295C295.8 207.258 295.359 207.392 294.972 207.661C294.596 207.93 294.263 208.338 293.972 208.887C293.693 209.424 293.451 210.107 293.247 210.935H292.601C292.687 210.226 292.752 209.51 292.795 208.79C292.838 208.059 292.859 207.322 292.859 206.58C293.365 206.591 293.924 206.602 294.537 206.613C295.161 206.623 295.779 206.629 296.392 206.629C297.015 206.629 297.575 206.629 298.069 206.629C298.564 206.629 299.118 206.629 299.73 206.629C300.343 206.629 300.956 206.623 301.569 206.613C302.193 206.602 302.752 206.591 303.247 206.58C303.257 207.333 303.284 208.07 303.327 208.79C303.37 209.51 303.435 210.226 303.521 210.935H302.876C302.714 210.312 302.531 209.774 302.327 209.322C302.134 208.86 301.913 208.478 301.666 208.177C301.419 207.865 301.139 207.634 300.827 207.484C300.526 207.333 300.193 207.258 299.827 207.258H299.698V215.871C299.698 216.312 299.752 216.639 299.859 216.855C299.967 217.059 300.177 217.199 300.488 217.274C300.8 217.338 301.263 217.371 301.876 217.371V218C301.467 217.989 300.919 217.978 300.23 217.967C299.553 217.957 298.843 217.951 298.101 217.951C297.327 217.951 296.596 217.957 295.908 217.967C295.22 217.978 294.666 217.989 294.247 218ZM339.071 218V217.371C339.437 217.295 339.754 217.166 340.023 216.984C340.292 216.801 340.544 216.537 340.781 216.193C341.017 215.849 341.265 215.392 341.523 214.822L345.345 206.467H345.926L350.684 215.871C350.953 216.398 351.227 216.774 351.507 217C351.786 217.215 352.136 217.338 352.555 217.371V218C352.168 217.978 351.679 217.967 351.087 217.967C350.507 217.957 349.835 217.951 349.071 217.951C348.243 217.951 347.534 217.957 346.942 217.967C346.361 217.967 345.921 217.978 345.62 218V217.371C346.136 217.36 346.523 217.301 346.781 217.193C347.05 217.075 347.2 216.903 347.232 216.677C347.275 216.451 347.2 216.161 347.007 215.806L344.023 209.919L344.507 209.79L342.523 214.129C342.211 214.817 342.044 215.398 342.023 215.871C342.012 216.344 342.146 216.709 342.426 216.967C342.716 217.215 343.157 217.349 343.749 217.371V218C343.297 217.989 342.91 217.984 342.587 217.984C342.275 217.973 341.996 217.967 341.749 217.967C341.501 217.957 341.254 217.951 341.007 217.951C340.62 217.951 340.27 217.957 339.958 217.967C339.646 217.967 339.351 217.978 339.071 218ZM341.958 214.645L342.232 214.016H347.087L347.41 214.645H341.958ZM387.252 221.855V221.226C387.854 221.172 388.349 221.016 388.736 220.758C389.123 220.51 389.408 220.15 389.591 219.677C389.784 219.204 389.881 218.618 389.881 217.919V208.596C389.881 208.209 389.843 207.924 389.768 207.742C389.693 207.548 389.532 207.414 389.284 207.338C389.048 207.263 388.682 207.22 388.188 207.209V206.58C388.768 206.613 389.854 206.629 391.446 206.629C393.037 206.629 394.118 206.613 394.688 206.58V207.209C394.257 207.22 393.93 207.263 393.704 207.338C393.489 207.403 393.343 207.532 393.268 207.726C393.193 207.919 393.155 208.209 393.155 208.596V216.451C393.155 217.688 392.946 218.704 392.526 219.5C392.118 220.306 391.478 220.898 390.607 221.274C389.736 221.661 388.618 221.855 387.252 221.855Z" fill="black"/>
<path d="M253 203L251 204.5L249 203" stroke="black"/>
</g>
<defs>
<clipPath id="clip0_54_197">
<rect width="442" height="236" fill="white"/>
</clipPath>
</defs>
</svg>
