<svg width="374" height="55" viewBox="0 0 374 55" fill="none" xmlns="http://www.w3.org/2000/svg">
<path fill-rule="evenodd" clip-rule="evenodd" d="M171 2H197C195.5 4 192.5 8.3 192.5 9.5V43.5C192.667 45.833 194 51.1 198 53.5H169C171.167 52 175.6 47.9 176 43.5V26.5V9.5C175.667 8.166 174.2 4.8 171 2ZM177.5 49L178.5 7.5C180.1 7.9 180.834 10.666 181 12V40C181 42 180 46 179.5 47C179.1 47.8 178 48.666 177.5 49Z" fill="black"/>
<path fill-rule="evenodd" clip-rule="evenodd" d="M211 2H233.5L251.5 31.5C252.167 32.166 253.7 33.1 254.5 31.5C255.3 29.9 265.167 12.833 270 4.5C270.667 3.666 272.2 2 273 2H294.5C294.667 2.5 294.9 3.6 294.5 4C294 4.5 289.5 7 289.5 9.5V47C290.167 48.166 292.4 51.1 296 53.5H265.5C267.334 52.5 271.1 48.5 271.5 40.5C271.9 32.5 272.667 19.833 273 14.5C273.167 12.333 272.6 9.1 269 13.5L245.5 55C244.334 54.5 241.6 52.6 240 49C238.4 45.4 227.334 24.5 222 14.5C221.834 14 221.4 13.3 221 14.5C220.6 15.7 220.834 32.333 221 40.5C221.167 43 223.1 49.1 229.5 53.5H207C210.334 51 217 44.4 217 38V13.5C216.834 11 215.4 5.2 211 2ZM230.5 23.283C230.1 21.683 224.334 12.283 221.5 7.783C228.5 7.783 246 50.783 245.5 50.783C245 50.783 231 25.283 230.5 23.283Z" fill="black"/>
<path d="M39 0C49.7695 0 59.5199 3.077 66.577 8.055C73.635 13.031 78 19.906 78 27.5C78 35.093 73.635 41.969 66.577 46.945C59.52 51.922 49.7695 55 39 55C28.2305 55 18.4804 51.922 11.4229 46.945C4.3652 41.969 0 35.093 0 27.5C0 19.906 4.3652 13.031 11.4229 8.055L12.0928 7.594C19.0913 2.888 28.5672 0 39 0ZM39 3.5C28.231 3.5 19.5 14.021 19.5 27C19.5 39.979 28.231 50.5 39 50.5C49.7691 50.5 58.5 39.979 58.5 27C58.5 14.021 49.7691 3.5 39 3.5ZM15.2266 11.004C8.275 15.757 -1.4428 28.614 15.2979 42.013C1.9039 30.703 9.6695 16.628 15.2266 11.004Z" fill="black"/>
<path d="M121.669 2.92045C120.722 3.3831 119.226 4.34826 117.874 5.71484C116.521 7.08336 115.344 8.82317 114.97 10.8351C114.779 11.8606 114.658 13.8861 114.595 16.5347C114.532 19.1707 114.526 22.3869 114.555 25.7723C114.612 32.5255 114.81 39.9357 114.976 44.7129C115.206 45.9969 116.285 47.8154 118.894 48.9127C121.529 50.0198 125.759 50.4037 132.264 48.6717C145.309 45.1969 153.481 38.5429 155.901 35.7077L156.049 35.5327H159L158.737 36.1956L151.77 53.6909L151.647 54H88.1045L88 53.0387C90.109 52.5975 94.7969 49.8565 95.5723 42.2878C96.3635 34.5569 96.2331 19.0638 96.0669 12.2425C95.9077 10.9032 94.5421 7.0299 90.2404 2.83005L89.3914 2H121.447L121.669 2.92045ZM100.047 9.25375C99.8511 21.3819 99.5764 45.3534 100.047 44.2046C100.634 42.768 100.929 41.8106 101.516 38.9375C101.967 36.734 101.727 25.2493 101.591 18.7129C101.549 16.7233 101.516 15.1915 101.516 14.5208C101.516 12.2231 100.929 10.3696 100.635 9.73196L100.047 9.25375Z" fill="black"/>
<path d="M309.494 2.3951C325.123 1.87426 357.576 1.45759 362.364 3.95762C378.325 9.16603 374.335 20.1037 370.844 23.7496C368.049 26.6663 360.037 28.4371 356.379 28.958L334.932 30.5205C332.537 30.5215 331.939 33.2987 331.939 34.6872V46.1457C331.939 51.1458 335.929 54.1323 337.924 55H307C312.585 52.0843 313.983 47.8832 313.983 46.1457V8.12435C313.983 6.45766 310.99 3.61074 309.494 2.3951ZM318.662 38.8946C318.662 42.6394 318.029 48.4301 317.712 50.8572C318.662 51.8958 320.563 39.9352 320.563 38.8946C320.563 37.8508 320.88 18.612 320.563 13.9328C320.309 10.189 319.191 8.55873 318.662 8.21185V38.8946ZM336.434 6.22119C335.599 6.0764 333.934 6.1337 333.934 7.52538V22.7433C334.101 23.4673 334.834 24.9173 336.434 24.9173C338.433 24.9173 349.429 24.9173 353.927 22.3079C357.526 20.2214 357.092 14.1921 356.426 11.4379C355.425 9.69937 351.229 6.22119 342.431 6.22119H336.434Z" fill="black"/>
</svg>
