<svg width="374" height="55" viewBox="0 0 374 55" fill="none" xmlns="http://www.w3.org/2000/svg">
<mask id="mask0_54_202" style="mask-type:luminance" maskUnits="userSpaceOnUse" x="0" y="0" width="374" height="55">
<path d="M374 0H0V55H374V0Z" fill="#F7F3EE"/>
</mask>
<g mask="url(#mask0_54_202)">
<path d="M181.5 11.9688L181.496 11.9385C181.409 11.2356 181.173 10.1601 180.744 9.19629C180.329 8.26447 179.661 7.27467 178.621 7.01465L178.016 6.86328L178 7.48828L177 48.9883L176.977 49.9512L177.777 49.416C178.047 49.2357 178.469 48.9195 178.877 48.542C179.277 48.1718 179.706 47.7058 179.947 47.2236C180.227 46.6633 180.613 45.358 180.925 43.9854C181.239 42.6034 181.5 41.0585 181.5 40V11.9688ZM176.5 9.43848L176.485 9.37891C176.165 8.09616 174.903 5.16723 172.26 2.5H196.011C195.321 3.44949 194.489 4.64427 193.766 5.78223C193.293 6.52579 192.861 7.25389 192.546 7.87793C192.388 8.18966 192.255 8.48366 192.161 8.74609C192.07 8.99881 192 9.26254 192 9.5V43.5176L192.001 43.5361C192.088 44.7571 192.477 46.7141 193.356 48.6787C194.044 50.2159 195.047 51.782 196.464 53H170.473C171.433 52.2044 172.545 51.1422 173.551 49.9023C175.007 48.1062 176.285 45.8876 176.498 43.5449L176.5 43.5225V9.43848Z" fill="#F7F3EE" stroke="black"/>
<path d="M221.077 8.0498C222.493 10.2974 224.64 13.7686 226.482 16.876C227.404 18.4301 228.248 19.8899 228.885 21.0586C229.203 21.643 229.468 22.1505 229.664 22.5586C229.866 22.9788 229.978 23.2594 230.015 23.4043C230.058 23.5757 230.158 23.8287 230.287 24.1221C230.421 24.427 230.6 24.81 230.817 25.2568C231.252 26.1515 231.845 27.3167 232.541 28.6543C233.934 31.3303 235.748 34.7091 237.562 38.0234C239.375 41.3376 241.189 44.5909 242.582 47.0166C243.278 48.2287 243.871 49.2376 244.307 49.9453C244.524 50.2979 244.706 50.5824 244.844 50.7812C244.912 50.8791 244.977 50.967 245.034 51.0342C245.062 51.0663 245.099 51.1076 245.142 51.1445C245.163 51.1628 245.197 51.1898 245.242 51.2148C245.28 51.2359 245.373 51.2832 245.5 51.2832C245.626 51.2832 245.75 51.2361 245.846 51.1475C245.93 51.0695 245.967 50.9826 245.983 50.9326C246.014 50.8393 246.011 50.757 246.01 50.7305C246.007 50.6619 245.993 50.5942 245.982 50.5479C245.959 50.444 245.917 50.3061 245.865 50.1455C245.759 49.8194 245.59 49.3489 245.367 48.7588C244.92 47.5762 244.248 45.8908 243.407 43.8721C241.725 39.834 239.361 34.4501 236.763 29.0654C234.166 23.6841 231.327 18.2871 228.692 14.2295C227.376 12.2026 226.1 10.4913 224.919 9.28125C224.329 8.67629 223.75 8.18368 223.19 7.83984C222.634 7.49772 222.063 7.2832 221.5 7.2832H220.594L221.077 8.0498ZM217.5 13.4834L217.499 13.4668C217.412 12.1608 216.999 10.0305 216.047 7.81543C215.256 5.97497 214.082 4.05455 212.393 2.5H233.219L251.073 31.7607L251.104 31.8115L251.146 31.8535C251.514 32.2203 252.148 32.6953 252.85 32.8398C253.212 32.9144 253.616 32.9043 254.003 32.7197C254.392 32.5344 254.709 32.1993 254.947 31.7236C255.737 30.1442 265.563 13.1461 270.411 4.78613C270.735 4.3836 271.257 3.79407 271.788 3.30566C272.06 3.05557 272.324 2.84243 272.556 2.69531C272.805 2.53723 272.949 2.5 273 2.5H294.12C294.162 2.67858 294.199 2.88052 294.214 3.0752C294.226 3.24323 294.222 3.38688 294.201 3.49609C294.18 3.60887 294.149 3.64382 294.146 3.64648C294.12 3.67317 294.032 3.74165 293.853 3.86914C293.683 3.98952 293.474 4.13232 293.222 4.30859C292.726 4.65477 292.102 5.10244 291.49 5.61719C290.881 6.13005 290.269 6.72305 289.806 7.36328C289.346 7.99901 289 8.72669 289 9.5V47.1328L289.066 47.248C289.684 48.3285 291.522 50.7666 294.442 53H267.02C269.063 51.1495 271.668 47.1516 271.999 40.5254C272.399 32.5288 273.166 19.8641 273.499 14.5312L273.498 14.5303C273.541 13.9642 273.539 13.3182 273.445 12.7324C273.355 12.1675 273.166 11.5543 272.753 11.1709C272.532 10.9663 272.253 10.8329 271.923 10.8125C271.603 10.7928 271.273 10.8812 270.941 11.0488C270.29 11.3786 269.526 12.068 268.613 13.1836L268.586 13.2168L268.564 13.2539L245.298 54.3408C244.076 53.6684 241.833 51.893 240.457 48.7969C238.849 45.1778 227.783 24.2785 222.452 14.2842C222.404 14.1491 222.341 13.9996 222.259 13.8633C222.175 13.7229 222.03 13.522 221.807 13.4131C221.682 13.3525 221.528 13.3176 221.358 13.3486C221.192 13.3791 221.058 13.4647 220.956 13.5625C220.766 13.7442 220.632 14.0208 220.525 14.3418C220.481 14.4742 220.456 14.6594 220.436 14.8467C220.414 15.0486 220.395 15.3028 220.379 15.5996C220.347 16.1942 220.324 16.982 220.308 17.9121C220.276 19.7733 220.273 22.2242 220.288 24.8896C220.317 30.2219 220.417 36.4248 220.5 40.5098V40.5215L220.501 40.5332C220.666 42.9984 222.425 48.6085 227.982 53H208.428C210.011 51.6678 211.964 49.7489 213.649 47.5137C215.757 44.7195 217.5 41.3617 217.5 38V13.4834Z" fill="#F7F3EE" stroke="black"/>
<path d="M39 0.5C49.6788 0.5 59.3259 3.55215 66.2891 8.46387C73.2543 13.3746 77.5 20.1124 77.5 27.5C77.5 34.8867 73.2543 41.6254 66.2891 46.5361C59.326 51.4469 49.6787 54.5 39 54.5C28.3213 54.5 18.6745 51.4469 11.7109 46.5361C4.74592 41.6254 0.5 34.8867 0.5 27.5C0.5 20.1123 4.74591 13.3746 11.7109 8.46387L11.71 8.46289L12.3721 8.00879C19.2793 3.36422 28.6556 0.5 39 0.5ZM39 3C27.8716 3 19 13.8362 19 27C19 40.1638 27.8716 51 39 51C50.1285 51 59 40.1638 59 27C59 13.8362 50.1285 3 39 3ZM14.9443 10.5908C11.4081 13.0087 7.13253 17.5073 5.88965 23.1592C4.63353 28.8716 6.50478 35.6156 14.9854 42.4033L15.6201 41.6309C9.06322 36.094 7.71544 29.9268 8.64844 24.46C9.58837 18.9532 12.8532 14.1172 15.582 11.3555L14.9443 10.5908Z" fill="#F7F3EE" stroke="black"/>
<path d="M121.053 2.5L121.091 2.65625C120.107 3.18891 118.754 4.11398 117.519 5.36328C116.125 6.77275 114.877 8.59874 114.479 10.7432C114.279 11.8151 114.158 13.8809 114.095 16.5234C114.032 19.1671 114.026 22.3891 114.055 25.7764C114.112 32.5359 114.31 39.9505 114.477 44.7305L114.478 44.7656L114.483 44.8008C114.737 46.219 115.874 48.0939 118.446 49.2627L118.7 49.374C121.473 50.5389 125.826 50.9038 132.393 49.1553C145.528 45.6563 153.789 38.9508 156.28 36.0332H158.264L151.308 53.5H88.5527L88.543 53.4141C90.9855 52.677 95.3194 49.662 96.0693 42.3389C96.8651 34.5714 96.7323 19.0469 96.5664 12.2305V12.207L96.5635 12.1836C96.3881 10.7073 94.9574 6.74913 90.6162 2.5H121.053ZM99.5469 9.24609C99.4489 15.3111 99.3313 24.3382 99.2969 31.7061C99.2797 35.3892 99.2828 38.6616 99.3203 40.9424C99.339 42.0805 99.3673 42.9802 99.4053 43.5625C99.4238 43.8457 99.4459 44.0829 99.4775 44.2363C99.4858 44.2762 99.4973 44.3247 99.5146 44.373C99.5244 44.4003 99.5644 44.5154 99.6689 44.6104C99.7323 44.6679 99.8465 44.7418 100.005 44.7451C100.163 44.7483 100.279 44.6794 100.345 44.625C100.399 44.5799 100.438 44.5293 100.464 44.4863L100.51 44.3945C101.037 43.1029 101.335 42.1831 101.797 40.0371L102.006 39.0381C102.129 38.4359 102.199 37.2589 102.237 35.7803C102.276 34.2839 102.284 32.4312 102.273 30.4473C102.253 26.479 102.159 21.9693 102.091 18.7021C102.049 16.7086 102.016 15.1848 102.016 14.5215C102.016 12.1501 101.413 10.2251 101.089 9.52246L101.04 9.41699L100.95 9.34375L100.362 8.86621L99.5635 8.2168L99.5469 9.24609Z" fill="#F7F3EE" stroke="black"/>
<path d="M310.791 2.85449C318.593 2.61159 329.899 2.40833 339.987 2.54395C345.316 2.61557 350.298 2.78076 354.242 3.08398C356.215 3.23565 357.921 3.42194 359.277 3.64551C360.651 3.87192 361.611 4.12914 362.133 4.40137L362.169 4.4209L362.209 4.43359C370.077 7.00079 372.878 10.9202 373.403 14.5117C373.903 17.9348 372.366 21.2244 370.797 23.0576L370.482 23.4043C369.842 24.0721 368.877 24.6992 367.7 25.2715C366.529 25.8411 365.176 26.343 363.787 26.7744C361.016 27.6347 358.135 28.2013 356.326 28.46L334.91 30.0205C333.483 30.0296 332.597 30.8814 332.094 31.8545C331.598 32.8136 331.44 33.9393 331.439 34.6865V46.1455C331.439 50.2322 333.952 53.0247 336.055 54.5H308.837C313.253 51.5953 314.483 47.8928 314.483 46.1455V8.12402C314.483 7.57403 314.243 6.9898 313.924 6.44434C313.598 5.88707 313.155 5.31064 312.676 4.76172C312.074 4.07207 311.399 3.40741 310.791 2.85449ZM318.162 38.8945C318.162 42.6037 317.532 48.3675 317.216 50.792L317.187 51.0225L317.343 51.1943C317.418 51.2769 317.531 51.3644 317.684 51.4023C317.843 51.4419 317.992 51.4138 318.111 51.3584C318.317 51.2627 318.451 51.0786 318.532 50.9482C318.711 50.6608 318.878 50.222 319.035 49.7227C319.355 48.7041 319.687 47.2516 319.984 45.7529C320.283 44.2497 320.551 42.6821 320.745 41.4248C320.842 40.7965 320.921 40.2436 320.976 39.8135C321.028 39.3973 321.063 39.0623 321.063 38.8945C321.064 37.8777 321.38 18.6 321.062 13.8994C320.932 11.9841 320.579 10.5858 320.178 9.6084C319.785 8.652 319.324 8.04843 318.937 7.79395L318.162 7.28613V38.8945ZM336.467 5.7207C336.004 5.64708 335.319 5.62427 334.716 5.82129C334.397 5.92555 334.072 6.10056 333.826 6.38965C333.573 6.68686 333.434 7.06986 333.434 7.52539V22.7998L333.447 22.8555C333.547 23.2858 333.805 23.9093 334.273 24.4346C334.752 24.971 335.463 25.4169 336.434 25.417C337.436 25.417 340.704 25.4172 344.289 25.0889C346.081 24.9247 347.961 24.6773 349.683 24.3047C351.397 23.9335 352.987 23.431 354.178 22.7402C356.179 21.5799 357.007 19.3559 357.272 17.1836C357.539 14.9983 357.256 12.7407 356.912 11.3203L356.896 11.251L356.859 11.1885L356.745 11.002C355.462 9.02899 351.065 5.7207 342.431 5.7207H336.467Z" fill="#F7F3EE" stroke="black"/>
</g>
</svg>
