<svg width="432" height="44" viewBox="0 0 432 44" fill="none" xmlns="http://www.w3.org/2000/svg">
<path d="M17.9803 27.745H1V42C168.926 38.157 263.075 40.716 431 42V27.236H413.521V14H17.9803" fill="#F7F3EE"/>
<path d="M17.9803 27.745H1V42C168.926 38.157 263.075 40.716 431 42V27.236H413.521V14H17.9803" stroke="black" stroke-width="2"/>
<mask id="mask0_54_343" style="mask-type:luminance" maskUnits="userSpaceOnUse" x="41" y="0" width="348" height="15">
<path d="M389 15H41V0H389V15Z" fill="#EAE0D5"/>
</mask>
<g mask="url(#mask0_54_343)">
<path d="M49.068 6.77699H42V14H93.9997V6.77699H86.4272M49.068 6.77699V1H86.4272V6.77699" fill="#F7F3EE"/>
<path d="M49.068 6.77699H42V14H93.9997V6.77699H86.4272M49.068 6.77699V1H86.4272V6.77699M49.068 6.77699H86.4272Z" fill="#F7F3EE"/>
<path d="M49.068 6.77699H42V14H93.9997V6.77699H86.4272M49.068 6.77699V1H86.4272V6.77699M49.068 6.77699H86.4272" stroke="black" stroke-width="2"/>
<mask id="mask1_54_343" style="mask-type:luminance" maskUnits="userSpaceOnUse" x="115" y="0" width="54" height="15">
<path d="M169 15H115V0H169V15Z" fill="#F7F3EE"/>
</mask>
<g mask="url(#mask1_54_343)">
<path d="M123.068 6.77699H116V14H168V6.77699H160.427M123.068 6.77699V1H160.427V6.77699" fill="#F7F3EE"/>
<path d="M123.068 6.77699H116V14H168V6.77699H160.427M123.068 6.77699V1H160.427V6.77699M123.068 6.77699H160.427Z" fill="#F7F3EE"/>
<path d="M123.068 6.77699H116V14H168V6.77699H160.427M123.068 6.77699V1H160.427V6.77699M123.068 6.77699H160.427" stroke="black" stroke-width="2"/>
</g>
<mask id="mask2_54_343" style="mask-type:luminance" maskUnits="userSpaceOnUse" x="188" y="0" width="54" height="15">
<path d="M242 15H188V0H242V15Z" fill="#F7F3EE"/>
</mask>
<g mask="url(#mask2_54_343)">
<path d="M196.068 6.77699H189V14H241V6.77699H233.427M196.068 6.77699V1H233.427V6.77699" fill="#F7F3EE"/>
<path d="M196.068 6.77699H189V14H241V6.77699H233.427M196.068 6.77699V1H233.427V6.77699M196.068 6.77699H233.427Z" fill="#F7F3EE"/>
<path d="M196.068 6.77699H189V14H241V6.77699H233.427M196.068 6.77699V1H233.427V6.77699M196.068 6.77699H233.427" stroke="black" stroke-width="2"/>
</g>
<mask id="mask3_54_343" style="mask-type:luminance" maskUnits="userSpaceOnUse" x="261" y="0" width="54" height="15">
<path d="M315 15H261V0H315V15Z" fill="#F7F3EE"/>
</mask>
<g mask="url(#mask3_54_343)">
<path d="M269.068 6.77699H262V14H314V6.77699H306.427M269.068 6.77699V1H306.427V6.77699" fill="#F7F3EE"/>
<path d="M269.068 6.77699H262V14H314V6.77699H306.427M269.068 6.77699V1H306.427V6.77699M269.068 6.77699H306.427Z" fill="#F7F3EE"/>
<path d="M269.068 6.77699H262V14H314V6.77699H306.427M269.068 6.77699V1H306.427V6.77699M269.068 6.77699H306.427" stroke="black" stroke-width="2"/>
</g>
<mask id="mask4_54_343" style="mask-type:luminance" maskUnits="userSpaceOnUse" x="335" y="0" width="54" height="15">
<path d="M389 15H335V0H389V15Z" fill="#F7F3EE"/>
</mask>
<g mask="url(#mask4_54_343)">
<path d="M343.068 6.77699H336V14H388V6.77699H380.427M343.068 6.77699V1H380.427V6.77699" fill="#F7F3EE"/>
<path d="M343.068 6.77699H336V14H388V6.77699H380.427M343.068 6.77699V1H380.427V6.77699M343.068 6.77699H380.427Z" fill="#F7F3EE"/>
<path d="M343.068 6.77699H336V14H388V6.77699H380.427M343.068 6.77699V1H380.427V6.77699M343.068 6.77699H380.427" stroke="black" stroke-width="2"/>
</g>
</g>
<path d="M17 28L18 14H21" stroke="black" stroke-width="2"/>
<path d="M52.4838 34.113L44.887 24.419H44.6935V31.161C44.6935 31.72 44.7311 32.156 44.8064 32.467C44.8816 32.769 45.0483 32.984 45.3064 33.113C45.5752 33.242 45.9892 33.328 46.5483 33.371V34C46.3333 33.978 46.0322 33.967 45.6451 33.967C45.258 33.957 44.8601 33.951 44.4515 33.951C44.0537 33.951 43.6827 33.957 43.3386 33.967C43.0053 33.967 42.7311 33.978 42.5161 34V33.371C42.9569 33.328 43.2849 33.242 43.4999 33.113C43.715 32.984 43.8601 32.774 43.9354 32.484C44.0107 32.193 44.0483 31.801 44.0483 31.306V24.596C44.0483 24.199 44.0107 23.908 43.9354 23.726C43.8709 23.543 43.7311 23.414 43.5161 23.338C43.301 23.263 42.9677 23.22 42.5161 23.209V22.58C42.7526 22.591 43.0698 22.602 43.4677 22.613C43.8763 22.623 44.3064 22.629 44.758 22.629C45.2849 22.629 45.7741 22.623 46.2257 22.613C46.6773 22.602 47.0913 22.591 47.4677 22.58L52.2903 28.693H52.4838V25.419C52.4838 24.86 52.4462 24.43 52.3709 24.129C52.2956 23.817 52.1236 23.596 51.8548 23.467C51.5967 23.328 51.1881 23.242 50.629 23.209V22.58C50.844 22.591 51.1451 22.602 51.5322 22.613C51.9193 22.623 52.3118 22.629 52.7096 22.629C53.1075 22.629 53.4784 22.623 53.8225 22.613C54.1773 22.602 54.4569 22.591 54.6612 22.58V23.209C54.2204 23.242 53.8924 23.328 53.6773 23.467C53.4623 23.596 53.3171 23.806 53.2419 24.096C53.1666 24.376 53.129 24.769 53.129 25.274V34.113H52.4838ZM90.4379 34V33.371C90.8035 33.295 91.1207 33.166 91.3895 32.984C91.6584 32.801 91.9111 32.537 92.1476 32.193C92.3842 31.849 92.6315 31.392 92.8897 30.822L96.7127 22.467H97.2927L102.051 31.871C102.32 32.398 102.594 32.774 102.874 33C103.153 33.215 103.503 33.338 103.922 33.371V34C103.535 33.978 103.046 33.967 102.454 33.967C101.874 33.957 101.202 33.951 100.438 33.951C99.6097 33.951 98.9007 33.957 98.3087 33.967C97.7287 33.967 97.2877 33.978 96.9867 34V33.371C97.5027 33.36 97.8897 33.301 98.1477 33.193C98.4167 33.075 98.5667 32.903 98.5997 32.677C98.6427 32.451 98.5667 32.161 98.3737 31.806L95.3897 25.919L95.8737 25.79L93.8897 30.129C93.5777 30.817 93.4107 31.398 93.3897 31.871C93.3787 32.344 93.5137 32.709 93.7927 32.967C94.0827 33.215 94.5237 33.349 95.1157 33.371V34C94.6637 33.989 94.2767 33.984 93.9537 33.984C93.6427 33.973 93.3627 33.967 93.1157 33.967C92.8677 33.957 92.6207 33.951 92.3734 33.951C91.9863 33.951 91.6369 33.957 91.325 33.967C91.0132 33.967 90.7175 33.978 90.4379 34ZM93.3247 30.645L93.5997 30.016H98.4537L98.7767 30.645H93.3247ZM146.885 34.113L142.708 23.887H142.514V31.161C142.514 31.72 142.552 32.156 142.627 32.467C142.702 32.769 142.869 32.984 143.127 33.113C143.396 33.242 143.81 33.328 144.369 33.371V34C144.143 33.978 143.831 33.967 143.434 33.967C143.036 33.957 142.632 33.951 142.224 33.951C141.848 33.951 141.487 33.957 141.143 33.967C140.81 33.967 140.541 33.978 140.337 34V33.371C140.778 33.328 141.106 33.242 141.321 33.113C141.536 32.984 141.681 32.774 141.756 32.484C141.831 32.193 141.869 31.801 141.869 31.306V24.596C141.869 24.199 141.831 23.908 141.756 23.726C141.692 23.543 141.552 23.414 141.337 23.338C141.122 23.263 140.788 23.22 140.337 23.209V22.58C140.573 22.591 140.885 22.602 141.272 22.613C141.659 22.623 142.079 22.629 142.53 22.629C143.132 22.629 143.702 22.623 144.24 22.613C144.778 22.602 145.267 22.591 145.708 22.58L148.708 29.919L148.143 30.403L150.998 22.58C151.46 22.602 151.885 22.618 152.272 22.629C152.659 22.629 153.063 22.629 153.482 22.629C154.041 22.629 154.573 22.623 155.079 22.613C155.584 22.602 155.987 22.591 156.288 22.58V23.209C155.837 23.22 155.503 23.263 155.288 23.338C155.073 23.403 154.928 23.532 154.853 23.726C154.788 23.908 154.756 24.199 154.756 24.596V31.984C154.756 32.371 154.794 32.661 154.869 32.855C154.944 33.037 155.089 33.166 155.305 33.242C155.52 33.306 155.848 33.349 156.288 33.371V34C155.944 33.978 155.493 33.967 154.934 33.967C154.385 33.957 153.788 33.951 153.143 33.951C152.444 33.951 151.81 33.957 151.24 33.967C150.681 33.967 150.24 33.978 149.917 34V33.371C150.358 33.349 150.692 33.306 150.917 33.242C151.143 33.177 151.294 33.048 151.369 32.855C151.444 32.661 151.482 32.371 151.482 31.984V23.613H151.288L147.482 34.113H146.885ZM193.329 34V33.371C193.781 33.349 194.114 33.306 194.329 33.242C194.544 33.177 194.684 33.048 194.748 32.855C194.824 32.661 194.861 32.371 194.861 31.984V24.596C194.861 24.209 194.824 23.924 194.748 23.742C194.684 23.548 194.539 23.414 194.313 23.338C194.098 23.263 193.77 23.22 193.329 23.209V22.58C193.92 22.591 194.689 22.602 195.635 22.613C196.592 22.623 197.705 22.629 198.974 22.629C199.533 22.629 200.044 22.629 200.506 22.629C200.969 22.618 201.388 22.613 201.764 22.613C202.141 22.602 202.479 22.591 202.781 22.58C202.791 23.247 202.818 23.903 202.861 24.548C202.904 25.183 202.969 25.817 203.055 26.451H202.41C202.248 25.731 202.033 25.134 201.764 24.661C201.496 24.188 201.168 23.838 200.781 23.613C200.393 23.376 199.947 23.258 199.442 23.258H198.135V32.306C198.135 32.596 198.157 32.817 198.2 32.967C198.243 33.107 198.334 33.204 198.474 33.258C198.614 33.301 198.813 33.322 199.071 33.322H199.248C199.786 33.322 200.291 33.177 200.764 32.887C201.238 32.596 201.668 32.166 202.055 31.596C202.453 31.016 202.797 30.312 203.087 29.484H203.748C203.673 30.355 203.614 31.161 203.571 31.903C203.539 32.634 203.533 33.333 203.555 34C202.996 33.978 202.334 33.967 201.571 33.967C200.807 33.957 199.893 33.951 198.829 33.951C197.592 33.951 196.506 33.957 195.571 33.967C194.646 33.967 193.899 33.978 193.329 34ZM197.619 28.564V27.951H200.635V28.564H197.619ZM200.684 30.693C200.63 30.231 200.517 29.844 200.345 29.532C200.173 29.209 199.947 28.967 199.668 28.806C199.399 28.645 199.071 28.564 198.684 28.564V27.951C199.189 27.951 199.614 27.763 199.958 27.387C200.313 27 200.539 26.478 200.635 25.822H201.281C201.238 26.446 201.216 26.935 201.216 27.29C201.216 27.634 201.216 27.957 201.216 28.258C201.216 28.473 201.221 28.693 201.232 28.919C201.243 29.134 201.254 29.387 201.264 29.677C201.286 29.957 201.307 30.295 201.329 30.693H200.684ZM246.111 34.226C245.455 34.226 244.906 34.161 244.465 34.032C244.035 33.914 243.68 33.795 243.401 33.677C243.132 33.548 242.912 33.484 242.74 33.484C242.6 33.484 242.487 33.537 242.401 33.645C242.326 33.742 242.267 33.908 242.223 34.145H241.578C241.6 33.844 241.611 33.5 241.611 33.113C241.621 32.726 241.627 32.236 241.627 31.645C241.637 31.053 241.643 30.301 241.643 29.387H242.288C242.46 30.742 242.847 31.769 243.449 32.467C244.051 33.156 244.858 33.5 245.869 33.5C246.482 33.5 246.96 33.365 247.304 33.096C247.659 32.817 247.836 32.435 247.836 31.951C247.836 31.607 247.74 31.301 247.546 31.032C247.353 30.752 247.041 30.489 246.611 30.242C246.191 29.994 245.637 29.736 244.949 29.467C244.186 29.177 243.562 28.855 243.078 28.5C242.605 28.134 242.25 27.726 242.014 27.274C241.788 26.812 241.675 26.295 241.675 25.726C241.675 25.037 241.836 24.446 242.159 23.951C242.482 23.446 242.939 23.053 243.53 22.774C244.132 22.494 244.831 22.355 245.627 22.355C246.229 22.355 246.723 22.419 247.111 22.548C247.508 22.677 247.836 22.806 248.094 22.935C248.353 23.053 248.568 23.113 248.74 23.113C248.879 23.113 248.987 23.064 249.062 22.967C249.148 22.86 249.213 22.683 249.256 22.435H249.901C249.879 22.693 249.858 22.978 249.836 23.29C249.826 23.602 249.815 24.01 249.804 24.516C249.804 25.01 249.804 25.672 249.804 26.5H249.159C249.008 25.446 248.632 24.607 248.03 23.984C247.439 23.36 246.723 23.048 245.885 23.048C245.369 23.048 244.965 23.177 244.675 23.435C244.385 23.683 244.24 24.032 244.24 24.484C244.24 24.806 244.326 25.091 244.498 25.338C244.67 25.575 244.976 25.812 245.417 26.048C245.858 26.285 246.46 26.553 247.223 26.855C248.363 27.295 249.191 27.828 249.707 28.451C250.223 29.064 250.482 29.801 250.482 30.661C250.482 31.769 250.089 32.639 249.304 33.274C248.519 33.908 247.455 34.226 246.111 34.226ZM289.247 34V33.371C289.859 33.371 290.322 33.338 290.634 33.274C290.945 33.199 291.155 33.059 291.263 32.855C291.37 32.639 291.424 32.312 291.424 31.871V23.258H291.295C290.8 23.258 290.359 23.392 289.972 23.661C289.596 23.93 289.263 24.338 288.972 24.887C288.693 25.424 288.451 26.107 288.247 26.935H287.601C287.687 26.226 287.752 25.51 287.795 24.79C287.838 24.059 287.859 23.322 287.859 22.58C288.365 22.591 288.924 22.602 289.537 22.613C290.161 22.623 290.779 22.629 291.392 22.629C292.015 22.629 292.575 22.629 293.069 22.629C293.564 22.629 294.118 22.629 294.73 22.629C295.343 22.629 295.956 22.623 296.569 22.613C297.193 22.602 297.752 22.591 298.247 22.58C298.257 23.333 298.284 24.07 298.327 24.79C298.37 25.51 298.435 26.226 298.521 26.935H297.876C297.714 26.312 297.531 25.774 297.327 25.322C297.134 24.86 296.913 24.478 296.666 24.177C296.419 23.865 296.139 23.634 295.827 23.484C295.526 23.333 295.193 23.258 294.827 23.258H294.698V31.871C294.698 32.312 294.752 32.639 294.859 32.855C294.967 33.059 295.177 33.199 295.488 33.274C295.8 33.338 296.263 33.371 296.876 33.371V34C296.467 33.989 295.919 33.978 295.23 33.967C294.553 33.957 293.843 33.951 293.101 33.951C292.327 33.951 291.596 33.957 290.908 33.967C290.22 33.978 289.666 33.989 289.247 34ZM334.071 34V33.371C334.437 33.295 334.754 33.166 335.023 32.984C335.292 32.801 335.544 32.537 335.781 32.193C336.017 31.849 336.265 31.392 336.523 30.822L340.345 22.467H340.926L345.684 31.871C345.953 32.398 346.227 32.774 346.507 33C346.786 33.215 347.136 33.338 347.555 33.371V34C347.168 33.978 346.679 33.967 346.087 33.967C345.507 33.957 344.835 33.951 344.071 33.951C343.243 33.951 342.534 33.957 341.942 33.967C341.361 33.967 340.921 33.978 340.62 34V33.371C341.136 33.36 341.523 33.301 341.781 33.193C342.05 33.075 342.2 32.903 342.232 32.677C342.275 32.451 342.2 32.161 342.007 31.806L339.023 25.919L339.507 25.79L337.523 30.129C337.211 30.817 337.044 31.398 337.023 31.871C337.012 32.344 337.146 32.709 337.426 32.967C337.716 33.215 338.157 33.349 338.749 33.371V34C338.297 33.989 337.91 33.984 337.587 33.984C337.275 33.973 336.996 33.967 336.749 33.967C336.501 33.957 336.254 33.951 336.007 33.951C335.62 33.951 335.27 33.957 334.958 33.967C334.646 33.967 334.351 33.978 334.071 34ZM336.958 30.645L337.232 30.016H342.087L342.41 30.645H336.958ZM382.252 37.855V37.226C382.854 37.172 383.349 37.016 383.736 36.758C384.123 36.51 384.408 36.15 384.591 35.677C384.784 35.204 384.881 34.618 384.881 33.919V24.596C384.881 24.209 384.843 23.924 384.768 23.742C384.693 23.548 384.532 23.414 384.284 23.338C384.048 23.263 383.682 23.22 383.188 23.209V22.58C383.768 22.613 384.854 22.629 386.446 22.629C388.037 22.629 389.118 22.613 389.688 22.58V23.209C389.257 23.22 388.93 23.263 388.704 23.338C388.489 23.403 388.343 23.532 388.268 23.726C388.193 23.919 388.155 24.209 388.155 24.596V32.451C388.155 33.688 387.946 34.704 387.526 35.5C387.118 36.306 386.478 36.898 385.607 37.274C384.736 37.661 383.618 37.855 382.252 37.855Z" fill="black"/>
<path d="M248 19L246 20.5L244 19" stroke="black"/>
</svg>
