<svg width="439" height="96" viewBox="0 0 439 96" fill="none" xmlns="http://www.w3.org/2000/svg">
<g clip-path="url(#clip0_54_14)">
<path d="M57.3302 88.2589H50.2622V81.0367H102.262V88.2589H94.6894M57.3302 88.2589V94.0367H94.6894V88.2589M57.3302 88.2589H94.6894Z" fill="#C6AC8F"/>
<path d="M57.3302 88.2589H50.2622V81.0367H102.262V88.2589H94.6894M57.3302 88.2589V94.0367H94.6894V88.2589M57.3302 88.2589H94.6894" stroke="black" stroke-width="2"/>
<mask id="mask0_54_14" style="mask-type:luminance" maskUnits="userSpaceOnUse" x="123" y="80" width="55" height="16">
<path d="M177.262 80.0367H123.262V95.0367H177.262V80.0367Z" fill="#C6AC8F"/>
</mask>
<g mask="url(#mask0_54_14)">
<path d="M131.33 88.2589H124.262V81.0367H176.262V88.2589H168.69M131.33 88.2589V94.0367H168.69V88.2589M131.33 88.2589H168.69Z" fill="#C6AC8F"/>
<path d="M131.33 88.2589H124.262V81.0367H176.262V88.2589H168.69M131.33 88.2589V94.0367H168.69V88.2589M131.33 88.2589H168.69" stroke="black" stroke-width="2"/>
</g>
<mask id="mask1_54_14" style="mask-type:luminance" maskUnits="userSpaceOnUse" x="196" y="80" width="55" height="16">
<path d="M250.262 80.0367H196.262V95.0367H250.262V80.0367Z" fill="#C6AC8F"/>
</mask>
<g mask="url(#mask1_54_14)">
<path d="M204.33 88.2589H197.262V81.0367H249.262V88.2589H241.69M204.33 88.2589V94.0367H241.69V88.2589M204.33 88.2589H241.69Z" fill="#C6AC8F"/>
<path d="M204.33 88.2589H197.262V81.0367H249.262V88.2589H241.69M204.33 88.2589V94.0367H241.69V88.2589M204.33 88.2589H241.69" stroke="black" stroke-width="2"/>
</g>
<mask id="mask2_54_14" style="mask-type:luminance" maskUnits="userSpaceOnUse" x="269" y="80" width="55" height="16">
<path d="M323.262 80.0367H269.262V95.0367H323.262V80.0367Z" fill="#C6AC8F"/>
</mask>
<g mask="url(#mask2_54_14)">
<path d="M277.33 88.2589H270.262V81.0367H322.262V88.2589H314.69M277.33 88.2589V94.0367H314.69V88.2589M277.33 88.2589H314.69Z" fill="#C6AC8F"/>
<path d="M277.33 88.2589H270.262V81.0367H322.262V88.2589H314.69M277.33 88.2589V94.0367H314.69V88.2589M277.33 88.2589H314.69" stroke="black" stroke-width="2"/>
</g>
<mask id="mask3_54_14" style="mask-type:luminance" maskUnits="userSpaceOnUse" x="343" y="80" width="55" height="16">
<path d="M397.262 80.0367H343.262V95.0367H397.262V80.0367Z" fill="white"/>
</mask>
<g mask="url(#mask3_54_14)">
<path d="M351.33 88.2589H344.262V81.0367H396.262V88.2589H388.69M351.33 88.2589V94.0367H388.69V88.2589M351.33 88.2589H388.69Z" fill="#C6AC8F"/>
<path d="M351.33 88.2589H344.262V81.0367H396.262V88.2589H388.69M351.33 88.2589V94.0367H388.69V88.2589M351.33 88.2589H388.69" stroke="black" stroke-width="2"/>
</g>
<path d="M220.534 1.03674L0.262207 60.9169H438.262L220.534 1.03674Z" fill="#C6AC8F" stroke="black" stroke-width="2"/>
<path d="M25.698 81.0365V68.1024H426.562V81.0365H25.698Z" fill="#C6AC8F" stroke="black" stroke-width="2"/>
<path d="M185.261 22.0367C185.967 22.0367 186.913 22.0605 188.1 22.1082C189.288 22.1558 190.523 22.2272 191.807 22.3224C193.09 22.3939 194.213 22.4772 195.176 22.5725C196.139 22.6439 196.765 22.7272 197.053 22.8224L196.091 28.2153H195.609C195.609 26.9057 194.919 25.8462 193.539 25.0368C192.192 24.2272 190.331 23.8224 187.956 23.8224C185.999 23.8224 184.443 24.1081 183.288 24.6796C182.133 25.2272 181.507 25.9415 181.41 26.8224C181.315 27.6795 181.699 28.3463 182.566 28.8225C183.464 29.2986 184.507 29.7391 185.694 30.1438L194.695 33.251C196.492 33.8462 197.903 34.7152 198.93 35.8582C199.957 37.001 200.39 38.4414 200.229 40.1796C200.005 42.7271 198.561 44.6795 195.898 46.0367C193.267 47.3701 189.673 48.0367 185.117 48.0367C183.256 48.0367 181.571 47.9295 180.063 47.7152C178.555 47.501 177.255 47.2271 176.165 46.8939C175.105 46.5367 174.287 46.1438 173.71 45.7153C173.357 45.12 173.212 44.3938 173.277 43.5367C173.341 42.6796 173.55 41.8344 173.902 41.001C174.287 40.1439 174.737 39.4653 175.25 38.9653H175.683C175.587 40.2034 175.939 41.3819 176.742 42.501C177.544 43.62 178.747 44.5248 180.352 45.2153C181.956 45.9058 183.881 46.251 186.127 46.251C188.438 46.251 190.138 45.8939 191.229 45.1795C192.352 44.4653 192.914 43.6558 192.914 42.751C192.914 41.9891 192.513 41.2986 191.71 40.6795C190.941 40.0605 189.641 39.4415 187.812 38.8224L179.967 36.1081C177.753 35.3462 176.132 34.2986 175.105 32.9653C174.111 31.632 173.758 30.1201 174.047 28.4296C174.271 27.0486 174.864 25.882 175.827 24.9296C176.79 23.9772 178.058 23.2629 179.63 22.7868C181.234 22.2867 183.111 22.0367 185.261 22.0367ZM197.149 22.3939L197.005 23.1439H190.026V22.3939H197.149Z" fill="black"/>
<path d="M231.167 22.2175C231.167 22.2175 231.167 22.2778 231.167 22.3983C231.167 22.4947 231.167 22.543 231.167 22.543L213.976 48.0367H203.262V47.7112L219.071 24.4957H203.929V22.6877H226.119C226.754 22.6877 227.42 22.6635 228.119 22.6153C228.849 22.5671 229.484 22.5068 230.024 22.4345C230.595 22.3622 230.976 22.2899 231.167 22.2175ZM230.071 46.2286L229.786 48.0367H206.787V46.2286H230.071ZM232.262 39.6473L230.452 48.0367H220.167L220.977 46.6988L221.881 46.2286C224.166 46.2286 226.198 45.65 227.976 44.4929C229.786 43.3358 231.055 41.7205 231.786 39.6473H232.262ZM210.548 24.4957C208.611 24.5198 207.103 24.9538 206.024 25.7975C204.944 26.6172 204.405 27.7502 204.405 29.1967V29.486H203.929V24.3872H210.548V24.4957ZM203.929 22.0367C204.246 22.1331 204.723 22.2296 205.358 22.326C206.024 22.4224 206.754 22.5068 207.548 22.5792C208.342 22.6515 209.072 22.6877 209.738 22.6877L203.929 23.0853V22.0367Z" fill="black"/>
<path d="M247.789 23.0367H253.404C254.796 23.0367 256.219 23.1319 257.673 23.3224C259.126 23.5129 260.457 23.8582 261.663 24.3582C262.869 24.8344 263.844 25.5129 264.586 26.3939C265.328 27.2748 265.699 28.4057 265.699 29.7867C265.699 30.6915 265.483 31.6319 265.05 32.6081C264.617 33.5605 263.859 34.4058 262.776 35.1438C261.724 35.8582 260.225 36.3343 258.276 36.5725C259.575 36.8582 260.704 37.3463 261.663 38.0368C262.622 38.7272 263.379 39.4295 263.937 40.1439C263.998 40.2153 264.153 40.4177 264.4 40.751C264.648 41.0843 264.957 41.501 265.328 42.001C265.731 42.4772 266.148 42.9772 266.581 43.501C267.014 44.0248 267.447 44.5129 267.88 44.9653C268.592 45.7034 269.21 46.2629 269.736 46.6438C270.262 47.0249 270.788 47.2867 271.313 47.4295C271.871 47.5724 272.52 47.6558 273.262 47.6796V48.0367H267.462C265.607 48.0367 263.89 47.9534 262.312 47.7867C260.735 47.62 259.312 47.251 258.044 46.6796C256.806 46.1082 255.708 45.2034 254.749 43.9653C254.409 43.5367 254.131 43.1082 253.914 42.6796C253.698 42.251 253.512 41.8344 253.357 41.4296C253.203 41.0248 253.063 40.6439 252.94 40.2868C252.847 39.9057 252.754 39.5486 252.662 39.2153C252.569 38.8581 252.46 38.5249 252.337 38.2153C252.027 37.3582 251.656 36.7748 251.223 36.4653C250.79 36.1558 250.357 35.9415 249.924 35.8224V35.4653C250.048 35.4653 250.187 35.4653 250.341 35.4653C250.496 35.4653 250.605 35.4653 250.666 35.4653C251.532 35.4653 252.306 35.3105 252.986 35.001C253.666 34.6915 254.239 34.2153 254.703 33.5724C255.167 32.9296 255.476 32.0962 255.631 31.0724C255.662 30.882 255.693 30.6796 255.724 30.4653C255.755 30.2272 255.755 29.9414 255.724 29.6082C255.6 27.8462 255.028 26.62 254.007 25.9296C253.017 25.2391 251.827 24.8938 250.434 24.8938C250.28 24.8938 250.078 24.8938 249.831 24.8938C249.584 24.8938 249.321 24.8938 249.042 24.8938C248.764 24.8938 248.501 24.8938 248.254 24.8938C248.254 24.8938 248.207 24.7391 248.115 24.4296C248.052 24.12 247.975 23.8105 247.883 23.501C247.82 23.1915 247.789 23.0367 247.789 23.0367ZM248.392 23.0367V48.0367H238.835V23.0367H248.392ZM238.974 45.4296V48.0367H235.262V47.6796C235.324 47.6796 235.433 47.6796 235.587 47.6796C235.742 47.6796 235.834 47.6796 235.865 47.6796C236.669 47.6796 237.35 47.4653 237.907 47.0367C238.495 46.5843 238.804 46.0487 238.835 45.4296H238.974ZM238.974 25.6438H238.835C238.804 25.0248 238.495 24.501 237.907 24.0725C237.35 23.62 236.669 23.3938 235.865 23.3938C235.834 23.3938 235.742 23.3938 235.587 23.3938C235.433 23.3938 235.324 23.3938 235.262 23.3938V23.0367H238.974V25.6438ZM248.254 45.4296H248.392C248.392 46.0487 248.687 46.5843 249.274 47.0367C249.862 47.4653 250.558 47.6796 251.363 47.6796C251.424 47.6796 251.517 47.6796 251.64 47.6796C251.795 47.6796 251.888 47.6796 251.919 47.6796V48.0367H248.254V45.4296Z" fill="black"/>
</g>
<defs>
<clipPath id="clip0_54_14">
<rect width="439" height="96" fill="white"/>
</clipPath>
</defs>
</svg>
