<svg width="443" height="223" viewBox="0 0 443 223" fill="none" xmlns="http://www.w3.org/2000/svg">
<g clip-path="url(#clip0_54_380)">
<path fill-rule="evenodd" clip-rule="evenodd" d="M207 112H233C231.5 114 228.5 118.3 228.5 119.5V153.5C228.667 155.833 230 161.1 234 163.5H205C207.167 162 211.6 157.9 212 153.5V136.5V119.5C211.667 118.166 210.2 114.8 207 112ZM213.5 159L214.5 117.5C216.1 117.9 216.834 120.666 217 122V150C217 152 216 156 215.5 157C215.1 157.8 214 158.666 213.5 159Z" fill="black"/>
<path fill-rule="evenodd" clip-rule="evenodd" d="M247 112H269.5L287.5 141.5C288.167 142.166 289.7 143.1 290.5 141.5C291.3 139.9 301.167 122.833 306 114.5C306.667 113.666 308.2 112 309 112H330.5C330.667 112.5 330.9 113.6 330.5 114C330 114.5 325.5 117 325.5 119.5V157C326.167 158.166 328.4 161.1 332 163.5H301.5C303.334 162.5 307.1 158.5 307.5 150.5C307.9 142.5 308.667 129.833 309 124.5C309.167 122.333 308.6 119.1 305 123.5L281.5 165C280.334 164.5 277.6 162.6 276 159C274.4 155.4 263.334 134.5 258 124.5C257.834 124 257.4 123.3 257 124.5C256.6 125.7 256.834 142.333 257 150.5C257.167 153 259.1 159.1 265.5 163.5H243C246.334 161 253 154.4 253 148V123.5C252.834 121 251.4 115.2 247 112ZM266.5 133.283C266.1 131.683 260.334 122.283 257.5 117.783C264.5 117.783 282 160.783 281.5 160.783C281 160.783 267 135.283 266.5 133.283Z" fill="black"/>
<path d="M75 110C85.7695 110 95.5199 113.077 102.577 118.055C109.635 123.031 114 129.906 114 137.5C114 145.093 109.635 151.969 102.577 156.945C95.52 161.922 85.7695 165 75 165C64.2305 165 54.4804 161.922 47.4229 156.945C40.3652 151.969 36 145.093 36 137.5C36 129.906 40.3652 123.031 47.4229 118.055L48.0928 117.594C55.0913 112.888 64.5672 110 75 110ZM75 113.5C64.231 113.5 55.5 124.021 55.5 137C55.5 149.979 64.231 160.5 75 160.5C85.7691 160.5 94.5 149.979 94.5 137C94.5 124.021 85.7691 113.5 75 113.5ZM51.2266 121.004C44.275 125.757 34.5572 138.614 51.2979 152.013C37.9039 140.703 45.6695 126.628 51.2266 121.004Z" fill="black"/>
<path d="M157.669 112.92C156.722 113.383 155.226 114.348 153.874 115.715C152.521 117.083 151.344 118.823 150.97 120.835C150.779 121.861 150.658 123.886 150.595 126.535C150.532 129.171 150.526 132.387 150.555 135.772C150.612 142.526 150.81 149.936 150.976 154.713C151.206 155.997 152.285 157.815 154.894 158.913C157.529 160.02 161.759 160.404 168.264 158.672C181.309 155.197 189.481 148.543 191.901 145.708L192.049 145.533H195L194.737 146.196L187.77 163.691L187.647 164H124.104L124 163.039C126.109 162.598 130.797 159.856 131.572 152.288C132.364 144.557 132.233 129.064 132.067 122.243C131.908 120.903 130.542 117.03 126.24 112.83L125.391 112H157.447L157.669 112.92ZM136.047 119.254C135.851 131.382 135.576 155.353 136.047 154.205C136.634 152.768 136.929 151.811 137.516 148.938C137.967 146.734 137.727 135.249 137.591 128.713C137.549 126.723 137.516 125.191 137.516 124.521C137.516 122.223 136.929 120.37 136.635 119.732L136.047 119.254Z" fill="black"/>
<path d="M345.494 112.395C361.123 111.874 393.576 111.458 398.364 113.958C414.325 119.166 410.335 130.104 406.844 133.75C404.049 136.666 396.037 138.437 392.379 138.958L370.932 140.521C368.537 140.522 367.939 143.299 367.939 144.687V156.146C367.939 161.146 371.929 164.132 373.924 165H343C348.585 162.084 349.983 157.883 349.983 156.146V118.124C349.983 116.458 346.99 113.611 345.494 112.395ZM354.662 148.895C354.662 152.639 354.029 158.43 353.712 160.857C354.662 161.896 356.563 149.935 356.563 148.895C356.563 147.851 356.88 128.612 356.563 123.933C356.309 120.189 355.191 118.559 354.662 118.212V148.895ZM372.434 116.221C371.599 116.076 369.934 116.134 369.934 117.525V132.743C370.101 133.467 370.834 134.917 372.434 134.917C374.433 134.917 385.429 134.917 389.927 132.308C393.526 130.221 393.092 124.192 392.426 121.438C391.425 119.699 387.229 116.221 378.431 116.221H372.434Z" fill="black"/>
</g>
<g clip-path="url(#clip1_54_380)">
<path d="M57.3302 88.2589H50.2622V81.0367H102.262V88.2589H94.6894M57.3302 88.2589V94.0367H94.6894V88.2589M57.3302 88.2589H94.6894Z" fill="#C6AC8F"/>
<path d="M57.3302 88.2589H50.2622V81.0367H102.262V88.2589H94.6894M57.3302 88.2589V94.0367H94.6894V88.2589M57.3302 88.2589H94.6894" stroke="black" stroke-width="2"/>
<mask id="mask0_54_380" style="mask-type:luminance" maskUnits="userSpaceOnUse" x="123" y="80" width="55" height="16">
<path d="M177.262 80.0367H123.262V95.0367H177.262V80.0367Z" fill="#C6AC8F"/>
</mask>
<g mask="url(#mask0_54_380)">
<path d="M131.33 88.2589H124.262V81.0367H176.262V88.2589H168.69M131.33 88.2589V94.0367H168.69V88.2589M131.33 88.2589H168.69Z" fill="#C6AC8F"/>
<path d="M131.33 88.2589H124.262V81.0367H176.262V88.2589H168.69M131.33 88.2589V94.0367H168.69V88.2589M131.33 88.2589H168.69" stroke="black" stroke-width="2"/>
</g>
<mask id="mask1_54_380" style="mask-type:luminance" maskUnits="userSpaceOnUse" x="196" y="80" width="55" height="16">
<path d="M250.262 80.0367H196.262V95.0367H250.262V80.0367Z" fill="#C6AC8F"/>
</mask>
<g mask="url(#mask1_54_380)">
<path d="M204.33 88.2589H197.262V81.0367H249.262V88.2589H241.69M204.33 88.2589V94.0367H241.69V88.2589M204.33 88.2589H241.69Z" fill="#C6AC8F"/>
<path d="M204.33 88.2589H197.262V81.0367H249.262V88.2589H241.69M204.33 88.2589V94.0367H241.69V88.2589M204.33 88.2589H241.69" stroke="black" stroke-width="2"/>
</g>
<mask id="mask2_54_380" style="mask-type:luminance" maskUnits="userSpaceOnUse" x="269" y="80" width="55" height="16">
<path d="M323.262 80.0367H269.262V95.0367H323.262V80.0367Z" fill="#C6AC8F"/>
</mask>
<g mask="url(#mask2_54_380)">
<path d="M277.33 88.2589H270.262V81.0367H322.262V88.2589H314.69M277.33 88.2589V94.0367H314.69V88.2589M277.33 88.2589H314.69Z" fill="#C6AC8F"/>
<path d="M277.33 88.2589H270.262V81.0367H322.262V88.2589H314.69M277.33 88.2589V94.0367H314.69V88.2589M277.33 88.2589H314.69" stroke="black" stroke-width="2"/>
</g>
<mask id="mask3_54_380" style="mask-type:luminance" maskUnits="userSpaceOnUse" x="343" y="80" width="55" height="16">
<path d="M397.262 80.0367H343.262V95.0367H397.262V80.0367Z" fill="white"/>
</mask>
<g mask="url(#mask3_54_380)">
<path d="M351.33 88.2589H344.262V81.0367H396.262V88.2589H388.69M351.33 88.2589V94.0367H388.69V88.2589M351.33 88.2589H388.69Z" fill="#C6AC8F"/>
<path d="M351.33 88.2589H344.262V81.0367H396.262V88.2589H388.69M351.33 88.2589V94.0367H388.69V88.2589M351.33 88.2589H388.69" stroke="black" stroke-width="2"/>
</g>
<path d="M220.534 1.03674L0.262207 60.9169H438.262L220.534 1.03674Z" fill="#C6AC8F" stroke="black" stroke-width="2"/>
<path d="M25.698 81.0365V68.1024H426.562V81.0365H25.698Z" fill="#C6AC8F" stroke="black" stroke-width="2"/>
<path d="M185.261 22.0367C185.967 22.0367 186.913 22.0605 188.1 22.1082C189.288 22.1558 190.523 22.2272 191.807 22.3224C193.09 22.3939 194.213 22.4772 195.176 22.5725C196.139 22.6439 196.765 22.7272 197.053 22.8224L196.091 28.2153H195.609C195.609 26.9057 194.919 25.8462 193.539 25.0368C192.192 24.2272 190.331 23.8224 187.956 23.8224C185.999 23.8224 184.443 24.1081 183.288 24.6796C182.133 25.2272 181.507 25.9415 181.41 26.8224C181.315 27.6795 181.699 28.3463 182.566 28.8225C183.464 29.2986 184.507 29.7391 185.694 30.1438L194.695 33.251C196.492 33.8462 197.903 34.7152 198.93 35.8582C199.957 37.001 200.39 38.4414 200.229 40.1796C200.005 42.7271 198.561 44.6795 195.898 46.0367C193.267 47.3701 189.673 48.0367 185.117 48.0367C183.256 48.0367 181.571 47.9295 180.063 47.7152C178.555 47.501 177.255 47.2271 176.165 46.8939C175.105 46.5367 174.287 46.1438 173.71 45.7153C173.357 45.12 173.212 44.3938 173.277 43.5367C173.341 42.6796 173.55 41.8344 173.902 41.001C174.287 40.1439 174.737 39.4653 175.25 38.9653H175.683C175.587 40.2034 175.939 41.3819 176.742 42.501C177.544 43.62 178.747 44.5248 180.352 45.2153C181.956 45.9058 183.881 46.251 186.127 46.251C188.438 46.251 190.138 45.8939 191.229 45.1795C192.352 44.4653 192.914 43.6558 192.914 42.751C192.914 41.9891 192.513 41.2986 191.71 40.6795C190.941 40.0605 189.641 39.4415 187.812 38.8224L179.967 36.1081C177.753 35.3462 176.132 34.2986 175.105 32.9653C174.111 31.632 173.758 30.1201 174.047 28.4296C174.271 27.0486 174.864 25.882 175.827 24.9296C176.79 23.9772 178.058 23.2629 179.63 22.7868C181.234 22.2867 183.111 22.0367 185.261 22.0367ZM197.149 22.3939L197.005 23.1439H190.026V22.3939H197.149Z" fill="black"/>
<path d="M231.167 22.2175C231.167 22.2175 231.167 22.2778 231.167 22.3983C231.167 22.4947 231.167 22.543 231.167 22.543L213.976 48.0367H203.262V47.7112L219.071 24.4957H203.929V22.6877H226.119C226.754 22.6877 227.42 22.6635 228.119 22.6153C228.849 22.5671 229.484 22.5068 230.024 22.4345C230.595 22.3622 230.976 22.2899 231.167 22.2175ZM230.071 46.2286L229.786 48.0367H206.787V46.2286H230.071ZM232.262 39.6473L230.452 48.0367H220.167L220.977 46.6988L221.881 46.2286C224.166 46.2286 226.198 45.65 227.976 44.4929C229.786 43.3358 231.055 41.7205 231.786 39.6473H232.262ZM210.548 24.4957C208.611 24.5198 207.103 24.9538 206.024 25.7975C204.944 26.6172 204.405 27.7502 204.405 29.1967V29.486H203.929V24.3872H210.548V24.4957ZM203.929 22.0367C204.246 22.1331 204.723 22.2296 205.358 22.326C206.024 22.4224 206.754 22.5068 207.548 22.5792C208.342 22.6515 209.072 22.6877 209.738 22.6877L203.929 23.0853V22.0367Z" fill="black"/>
<path d="M247.789 23.0367H253.404C254.796 23.0367 256.219 23.1319 257.673 23.3224C259.126 23.5129 260.457 23.8582 261.663 24.3582C262.869 24.8344 263.844 25.5129 264.586 26.3939C265.328 27.2748 265.699 28.4057 265.699 29.7867C265.699 30.6915 265.483 31.6319 265.05 32.6081C264.617 33.5605 263.859 34.4058 262.776 35.1438C261.724 35.8582 260.225 36.3343 258.276 36.5725C259.575 36.8582 260.704 37.3463 261.663 38.0368C262.622 38.7272 263.379 39.4295 263.937 40.1439C263.998 40.2153 264.153 40.4177 264.4 40.751C264.648 41.0843 264.957 41.501 265.328 42.001C265.731 42.4772 266.148 42.9772 266.581 43.501C267.014 44.0248 267.447 44.5129 267.88 44.9653C268.592 45.7034 269.21 46.2629 269.736 46.6438C270.262 47.0249 270.788 47.2867 271.313 47.4295C271.871 47.5724 272.52 47.6558 273.262 47.6796V48.0367H267.462C265.607 48.0367 263.89 47.9534 262.312 47.7867C260.735 47.62 259.312 47.251 258.044 46.6796C256.806 46.1082 255.708 45.2034 254.749 43.9653C254.409 43.5367 254.131 43.1082 253.914 42.6796C253.698 42.251 253.512 41.8344 253.357 41.4296C253.203 41.0248 253.063 40.6439 252.94 40.2868C252.847 39.9057 252.754 39.5486 252.662 39.2153C252.569 38.8581 252.46 38.5249 252.337 38.2153C252.027 37.3582 251.656 36.7748 251.223 36.4653C250.79 36.1558 250.357 35.9415 249.924 35.8224V35.4653C250.048 35.4653 250.187 35.4653 250.341 35.4653C250.496 35.4653 250.605 35.4653 250.666 35.4653C251.532 35.4653 252.306 35.3105 252.986 35.001C253.666 34.6915 254.239 34.2153 254.703 33.5724C255.167 32.9296 255.476 32.0962 255.631 31.0724C255.662 30.882 255.693 30.6796 255.724 30.4653C255.755 30.2272 255.755 29.9414 255.724 29.6082C255.6 27.8462 255.028 26.62 254.007 25.9296C253.017 25.2391 251.827 24.8938 250.434 24.8938C250.28 24.8938 250.078 24.8938 249.831 24.8938C249.584 24.8938 249.321 24.8938 249.042 24.8938C248.764 24.8938 248.501 24.8938 248.254 24.8938C248.254 24.8938 248.207 24.7391 248.115 24.4296C248.052 24.12 247.975 23.8105 247.883 23.501C247.82 23.1915 247.789 23.0367 247.789 23.0367ZM248.392 23.0367V48.0367H238.835V23.0367H248.392ZM238.974 45.4296V48.0367H235.262V47.6796C235.324 47.6796 235.433 47.6796 235.587 47.6796C235.742 47.6796 235.834 47.6796 235.865 47.6796C236.669 47.6796 237.35 47.4653 237.907 47.0367C238.495 46.5843 238.804 46.0487 238.835 45.4296H238.974ZM238.974 25.6438H238.835C238.804 25.0248 238.495 24.501 237.907 24.0725C237.35 23.62 236.669 23.3938 235.865 23.3938C235.834 23.3938 235.742 23.3938 235.587 23.3938C235.433 23.3938 235.324 23.3938 235.262 23.3938V23.0367H238.974V25.6438ZM248.254 45.4296H248.392C248.392 46.0487 248.687 46.5843 249.274 47.0367C249.862 47.4653 250.558 47.6796 251.363 47.6796C251.424 47.6796 251.517 47.6796 251.64 47.6796C251.795 47.6796 251.888 47.6796 251.919 47.6796V48.0367H248.254V45.4296Z" fill="black"/>
</g>
<g clip-path="url(#clip2_54_380)">
<path d="M28.9803 206.745H12V221C179.926 217.157 274.075 219.716 442 221V206.236H424.521V193H28.9803" fill="#C6AC8F"/>
<path d="M28.9803 206.745H12V221C179.926 217.157 274.075 219.716 442 221V206.236H424.521V193H28.9803" stroke="black" stroke-width="2"/>
<mask id="mask4_54_380" style="mask-type:luminance" maskUnits="userSpaceOnUse" x="52" y="179" width="348" height="15">
<path d="M400 194H52V179H400V194Z" fill="white"/>
</mask>
<g mask="url(#mask4_54_380)">
<path d="M60.068 185.777H53V193H105V185.777H97.4272M60.068 185.777V180H97.4272V185.777M60.068 185.777H97.4272Z" fill="#C6AC8F"/>
<path d="M60.068 185.777H53V193H105V185.777H97.4272M60.068 185.777V180H97.4272V185.777M60.068 185.777H97.4272" stroke="black" stroke-width="2"/>
<mask id="mask5_54_380" style="mask-type:luminance" maskUnits="userSpaceOnUse" x="126" y="179" width="54" height="15">
<path d="M180 194H126V179H180V194Z" fill="#C6AC8F"/>
</mask>
<g mask="url(#mask5_54_380)">
<path d="M134.068 185.777H127V193H179V185.777H171.427M134.068 185.777V180H171.427V185.777M134.068 185.777H171.427Z" fill="#C6AC8F"/>
<path d="M134.068 185.777H127V193H179V185.777H171.427M134.068 185.777V180H171.427V185.777M134.068 185.777H171.427" stroke="black" stroke-width="2"/>
</g>
<mask id="mask6_54_380" style="mask-type:luminance" maskUnits="userSpaceOnUse" x="199" y="179" width="54" height="15">
<path d="M253 194H199V179H253V194Z" fill="#C6AC8F"/>
</mask>
<g mask="url(#mask6_54_380)">
<path d="M207.068 185.777H200V193H252V185.777H244.427M207.068 185.777V180H244.427V185.777M207.068 185.777H244.427Z" fill="#C6AC8F"/>
<path d="M207.068 185.777H200V193H252V185.777H244.427M207.068 185.777V180H244.427V185.777M207.068 185.777H244.427" stroke="black" stroke-width="2"/>
</g>
<mask id="mask7_54_380" style="mask-type:luminance" maskUnits="userSpaceOnUse" x="272" y="179" width="54" height="15">
<path d="M326 194H272V179H326V194Z" fill="white"/>
</mask>
<g mask="url(#mask7_54_380)">
<path d="M280.068 185.777H273V193H325V185.777H317.427M280.068 185.777V180H317.427V185.777M280.068 185.777H317.427Z" fill="#C6AC8F"/>
<path d="M280.068 185.777H273V193H325V185.777H317.427M280.068 185.777V180H317.427V185.777M280.068 185.777H317.427" stroke="black" stroke-width="2"/>
</g>
<mask id="mask8_54_380" style="mask-type:luminance" maskUnits="userSpaceOnUse" x="346" y="179" width="54" height="15">
<path d="M400 194H346V179H400V194Z" fill="#C6AC8F"/>
</mask>
<g mask="url(#mask8_54_380)">
<path d="M354.068 185.777H347V193H399V185.777H391.427M354.068 185.777V180H391.427V185.777M354.068 185.777H391.427Z" fill="#C6AC8F"/>
<path d="M354.068 185.777H347V193H399V185.777H391.427M354.068 185.777V180H391.427V185.777M354.068 185.777H391.427" stroke="black" stroke-width="2"/>
</g>
</g>
<path d="M28 207L29 193H32" stroke="black" stroke-width="2"/>
<path d="M63.4838 213.113L55.887 203.419H55.6935V210.161C55.6935 210.72 55.7311 211.156 55.8064 211.467C55.8816 211.769 56.0483 211.984 56.3064 212.113C56.5752 212.242 56.9892 212.328 57.5483 212.371V213C57.3333 212.978 57.0322 212.967 56.6451 212.967C56.258 212.957 55.8601 212.951 55.4515 212.951C55.0537 212.951 54.6827 212.957 54.3386 212.967C54.0053 212.967 53.7311 212.978 53.5161 213V212.371C53.9569 212.328 54.2849 212.242 54.4999 212.113C54.715 211.984 54.8601 211.774 54.9354 211.484C55.0107 211.193 55.0483 210.801 55.0483 210.306V203.596C55.0483 203.199 55.0107 202.908 54.9354 202.726C54.8709 202.543 54.7311 202.414 54.5161 202.338C54.301 202.263 53.9677 202.22 53.5161 202.209V201.58C53.7526 201.591 54.0698 201.602 54.4677 201.613C54.8763 201.623 55.3064 201.629 55.758 201.629C56.2849 201.629 56.7741 201.623 57.2257 201.613C57.6773 201.602 58.0913 201.591 58.4677 201.58L63.2903 207.693H63.4838V204.419C63.4838 203.86 63.4462 203.43 63.3709 203.129C63.2956 202.817 63.1236 202.596 62.8548 202.467C62.5967 202.328 62.1881 202.242 61.629 202.209V201.58C61.844 201.591 62.1451 201.602 62.5322 201.613C62.9193 201.623 63.3118 201.629 63.7096 201.629C64.1075 201.629 64.4784 201.623 64.8225 201.613C65.1773 201.602 65.4569 201.591 65.6612 201.58V202.209C65.2204 202.242 64.8924 202.328 64.6773 202.467C64.4623 202.596 64.3171 202.806 64.2419 203.096C64.1666 203.376 64.129 203.769 64.129 204.274V213.113H63.4838ZM101.438 213V212.371C101.804 212.295 102.121 212.166 102.39 211.984C102.658 211.801 102.911 211.537 103.148 211.193C103.384 210.849 103.632 210.392 103.89 209.822L107.713 201.467H108.293L113.051 210.871C113.32 211.398 113.594 211.774 113.874 212C114.153 212.215 114.503 212.338 114.922 212.371V213C114.535 212.978 114.046 212.967 113.454 212.967C112.874 212.957 112.202 212.951 111.438 212.951C110.61 212.951 109.901 212.957 109.309 212.967C108.729 212.967 108.288 212.978 107.987 213V212.371C108.503 212.36 108.89 212.301 109.148 212.193C109.417 212.075 109.567 211.903 109.6 211.677C109.643 211.451 109.567 211.161 109.374 210.806L106.39 204.919L106.874 204.79L104.89 209.129C104.578 209.817 104.411 210.398 104.39 210.871C104.379 211.344 104.514 211.709 104.793 211.967C105.083 212.215 105.524 212.349 106.116 212.371V213C105.664 212.989 105.277 212.984 104.954 212.984C104.643 212.973 104.363 212.967 104.116 212.967C103.868 212.957 103.621 212.951 103.373 212.951C102.986 212.951 102.637 212.957 102.325 212.967C102.013 212.967 101.718 212.978 101.438 213ZM104.325 209.645L104.6 209.016H109.454L109.777 209.645H104.325ZM157.885 213.113L153.708 202.887H153.514V210.161C153.514 210.72 153.552 211.156 153.627 211.467C153.702 211.769 153.869 211.984 154.127 212.113C154.396 212.242 154.81 212.328 155.369 212.371V213C155.143 212.978 154.831 212.967 154.434 212.967C154.036 212.957 153.632 212.951 153.224 212.951C152.848 212.951 152.487 212.957 152.143 212.967C151.81 212.967 151.541 212.978 151.337 213V212.371C151.778 212.328 152.106 212.242 152.321 212.113C152.536 211.984 152.681 211.774 152.756 211.484C152.831 211.193 152.869 210.801 152.869 210.306V203.596C152.869 203.199 152.831 202.908 152.756 202.726C152.692 202.543 152.552 202.414 152.337 202.338C152.122 202.263 151.788 202.22 151.337 202.209V201.58C151.573 201.591 151.885 201.602 152.272 201.613C152.659 201.623 153.079 201.629 153.53 201.629C154.132 201.629 154.702 201.623 155.24 201.613C155.778 201.602 156.267 201.591 156.708 201.58L159.708 208.919L159.143 209.403L161.998 201.58C162.46 201.602 162.885 201.618 163.272 201.629C163.659 201.629 164.063 201.629 164.482 201.629C165.041 201.629 165.573 201.623 166.079 201.613C166.584 201.602 166.987 201.591 167.288 201.58V202.209C166.837 202.22 166.503 202.263 166.288 202.338C166.073 202.403 165.928 202.532 165.853 202.726C165.788 202.908 165.756 203.199 165.756 203.596V210.984C165.756 211.371 165.794 211.661 165.869 211.855C165.944 212.037 166.089 212.166 166.305 212.242C166.52 212.306 166.848 212.349 167.288 212.371V213C166.944 212.978 166.493 212.967 165.934 212.967C165.385 212.957 164.788 212.951 164.143 212.951C163.444 212.951 162.81 212.957 162.24 212.967C161.681 212.967 161.24 212.978 160.917 213V212.371C161.358 212.349 161.692 212.306 161.917 212.242C162.143 212.177 162.294 212.048 162.369 211.855C162.444 211.661 162.482 211.371 162.482 210.984V202.613H162.288L158.482 213.113H157.885ZM204.329 213V212.371C204.781 212.349 205.114 212.306 205.329 212.242C205.544 212.177 205.684 212.048 205.748 211.855C205.824 211.661 205.861 211.371 205.861 210.984V203.596C205.861 203.209 205.824 202.924 205.748 202.742C205.684 202.548 205.539 202.414 205.313 202.338C205.098 202.263 204.77 202.22 204.329 202.209V201.58C204.92 201.591 205.689 201.602 206.635 201.613C207.592 201.623 208.705 201.629 209.974 201.629C210.533 201.629 211.044 201.629 211.506 201.629C211.969 201.618 212.388 201.613 212.764 201.613C213.141 201.602 213.479 201.591 213.781 201.58C213.791 202.247 213.818 202.903 213.861 203.548C213.904 204.183 213.969 204.817 214.055 205.451H213.41C213.248 204.731 213.033 204.134 212.764 203.661C212.496 203.188 212.168 202.838 211.781 202.613C211.393 202.376 210.947 202.258 210.442 202.258H209.135V211.306C209.135 211.596 209.157 211.817 209.2 211.967C209.243 212.107 209.334 212.204 209.474 212.258C209.614 212.301 209.813 212.322 210.071 212.322H210.248C210.786 212.322 211.291 212.177 211.764 211.887C212.238 211.596 212.668 211.166 213.055 210.596C213.453 210.016 213.797 209.312 214.087 208.484H214.748C214.673 209.355 214.614 210.161 214.571 210.903C214.539 211.634 214.533 212.333 214.555 213C213.996 212.978 213.334 212.967 212.571 212.967C211.807 212.957 210.893 212.951 209.829 212.951C208.592 212.951 207.506 212.957 206.571 212.967C205.646 212.967 204.899 212.978 204.329 213ZM208.619 207.564V206.951H211.635V207.564H208.619ZM211.684 209.693C211.63 209.231 211.517 208.844 211.345 208.532C211.173 208.209 210.947 207.967 210.668 207.806C210.399 207.645 210.071 207.564 209.684 207.564V206.951C210.189 206.951 210.614 206.763 210.958 206.387C211.313 206 211.539 205.478 211.635 204.822H212.281C212.238 205.446 212.216 205.935 212.216 206.29C212.216 206.634 212.216 206.957 212.216 207.258C212.216 207.473 212.221 207.693 212.232 207.919C212.243 208.134 212.254 208.387 212.264 208.677C212.286 208.957 212.307 209.295 212.329 209.693H211.684ZM257.111 213.226C256.455 213.226 255.906 213.161 255.465 213.032C255.035 212.914 254.68 212.795 254.401 212.677C254.132 212.548 253.912 212.484 253.74 212.484C253.6 212.484 253.487 212.537 253.401 212.645C253.326 212.742 253.267 212.908 253.223 213.145H252.578C252.6 212.844 252.611 212.5 252.611 212.113C252.621 211.726 252.627 211.236 252.627 210.645C252.637 210.053 252.643 209.301 252.643 208.387H253.288C253.46 209.742 253.847 210.769 254.449 211.467C255.051 212.156 255.858 212.5 256.869 212.5C257.482 212.5 257.96 212.365 258.304 212.096C258.659 211.817 258.836 211.435 258.836 210.951C258.836 210.607 258.74 210.301 258.546 210.032C258.353 209.752 258.041 209.489 257.611 209.242C257.191 208.994 256.637 208.736 255.949 208.467C255.186 208.177 254.562 207.855 254.078 207.5C253.605 207.134 253.25 206.726 253.014 206.274C252.788 205.812 252.675 205.295 252.675 204.726C252.675 204.037 252.836 203.446 253.159 202.951C253.482 202.446 253.939 202.053 254.53 201.774C255.132 201.494 255.831 201.355 256.627 201.355C257.229 201.355 257.723 201.419 258.111 201.548C258.508 201.677 258.836 201.806 259.094 201.935C259.353 202.053 259.568 202.113 259.74 202.113C259.879 202.113 259.987 202.064 260.062 201.967C260.148 201.86 260.213 201.683 260.256 201.435H260.901C260.879 201.693 260.858 201.978 260.836 202.29C260.826 202.602 260.815 203.01 260.804 203.516C260.804 204.01 260.804 204.672 260.804 205.5H260.159C260.008 204.446 259.632 203.607 259.03 202.984C258.439 202.36 257.723 202.048 256.885 202.048C256.369 202.048 255.965 202.177 255.675 202.435C255.385 202.683 255.24 203.032 255.24 203.484C255.24 203.806 255.326 204.091 255.498 204.338C255.67 204.575 255.976 204.812 256.417 205.048C256.858 205.285 257.46 205.553 258.223 205.855C259.363 206.295 260.191 206.828 260.707 207.451C261.223 208.064 261.482 208.801 261.482 209.661C261.482 210.769 261.089 211.639 260.304 212.274C259.519 212.908 258.455 213.226 257.111 213.226ZM300.247 213V212.371C300.859 212.371 301.322 212.338 301.634 212.274C301.945 212.199 302.155 212.059 302.263 211.855C302.37 211.639 302.424 211.312 302.424 210.871V202.258H302.295C301.8 202.258 301.359 202.392 300.972 202.661C300.596 202.93 300.263 203.338 299.972 203.887C299.693 204.424 299.451 205.107 299.247 205.935H298.601C298.687 205.226 298.752 204.51 298.795 203.79C298.838 203.059 298.859 202.322 298.859 201.58C299.365 201.591 299.924 201.602 300.537 201.613C301.161 201.623 301.779 201.629 302.392 201.629C303.015 201.629 303.575 201.629 304.069 201.629C304.564 201.629 305.118 201.629 305.73 201.629C306.343 201.629 306.956 201.623 307.569 201.613C308.193 201.602 308.752 201.591 309.247 201.58C309.257 202.333 309.284 203.07 309.327 203.79C309.37 204.51 309.435 205.226 309.521 205.935H308.876C308.714 205.312 308.531 204.774 308.327 204.322C308.134 203.86 307.913 203.478 307.666 203.177C307.419 202.865 307.139 202.634 306.827 202.484C306.526 202.333 306.193 202.258 305.827 202.258H305.698V210.871C305.698 211.312 305.752 211.639 305.859 211.855C305.967 212.059 306.177 212.199 306.488 212.274C306.8 212.338 307.263 212.371 307.876 212.371V213C307.467 212.989 306.919 212.978 306.23 212.967C305.553 212.957 304.843 212.951 304.101 212.951C303.327 212.951 302.596 212.957 301.908 212.967C301.22 212.978 300.666 212.989 300.247 213ZM345.071 213V212.371C345.437 212.295 345.754 212.166 346.023 211.984C346.292 211.801 346.544 211.537 346.781 211.193C347.017 210.849 347.265 210.392 347.523 209.822L351.345 201.467H351.926L356.684 210.871C356.953 211.398 357.227 211.774 357.507 212C357.786 212.215 358.136 212.338 358.555 212.371V213C358.168 212.978 357.679 212.967 357.087 212.967C356.507 212.957 355.835 212.951 355.071 212.951C354.243 212.951 353.534 212.957 352.942 212.967C352.361 212.967 351.921 212.978 351.62 213V212.371C352.136 212.36 352.523 212.301 352.781 212.193C353.05 212.075 353.2 211.903 353.232 211.677C353.275 211.451 353.2 211.161 353.007 210.806L350.023 204.919L350.507 204.79L348.523 209.129C348.211 209.817 348.044 210.398 348.023 210.871C348.012 211.344 348.146 211.709 348.426 211.967C348.716 212.215 349.157 212.349 349.749 212.371V213C349.297 212.989 348.91 212.984 348.587 212.984C348.275 212.973 347.996 212.967 347.749 212.967C347.501 212.957 347.254 212.951 347.007 212.951C346.62 212.951 346.27 212.957 345.958 212.967C345.646 212.967 345.351 212.978 345.071 213ZM347.958 209.645L348.232 209.016H353.087L353.41 209.645H347.958ZM393.252 216.855V216.226C393.854 216.172 394.349 216.016 394.736 215.758C395.123 215.51 395.408 215.15 395.591 214.677C395.784 214.204 395.881 213.618 395.881 212.919V203.596C395.881 203.209 395.843 202.924 395.768 202.742C395.693 202.548 395.532 202.414 395.284 202.338C395.048 202.263 394.682 202.22 394.188 202.209V201.58C394.768 201.613 395.854 201.629 397.446 201.629C399.037 201.629 400.118 201.613 400.688 201.58V202.209C400.257 202.22 399.93 202.263 399.704 202.338C399.489 202.403 399.343 202.532 399.268 202.726C399.193 202.919 399.155 203.209 399.155 203.596V211.451C399.155 212.688 398.946 213.704 398.526 214.5C398.118 215.306 397.478 215.898 396.607 216.274C395.736 216.661 394.618 216.855 393.252 216.855Z" fill="black"/>
<path d="M259 198L257 199.5L255 198" stroke="black"/>
</g>
<defs>
<clipPath id="clip0_54_380">
<rect width="374" height="55" fill="white" transform="translate(36 110)"/>
</clipPath>
<clipPath id="clip1_54_380">
<rect width="439" height="96" fill="white"/>
</clipPath>
<clipPath id="clip2_54_380">
<rect width="432" height="44" fill="white" transform="translate(11 179)"/>
</clipPath>
</defs>
</svg>
